<svg width="506" height="474" viewBox="0 0 506 474" fill="none" xmlns="http://www.w3.org/2000/svg">
<path d="M261.5 87.5V146.5V196.5H217.5V148.5C217.5 142.149 212.351 137 206 137H8V93.5H206C212.351 93.5 217.5 88.3513 217.5 82V32.5C217.5 22.8325 214.875 14.2567 210.05 7.50002C241.467 7.52714 261.5 33.2305 261.5 57.5V87.5Z" fill="#FEB272" fill-opacity="0.5" stroke="#FD9843" stroke-width="15"/>
<path d="M101.5 316.5V243.5H377.5V316.5H101.5Z" fill="#7BA6F7" fill-opacity="0.5" stroke="#3D8BFD" stroke-width="15"/>
<path d="M424.5 290.5V243.5H451H498.087C494.512 275.178 468.45 290.5 451 290.5H424.5Z" fill="#EA868F" fill-opacity="0.5" stroke="#E35D6A" stroke-width="15"/>
<mask id="path-4-inside-1_176_9" fill="white">
<path fill-rule="evenodd" clip-rule="evenodd" d="M184 356C181.791 356 180 357.791 180 360V360.38C180 362.435 181.567 364.129 183.58 364.542C219.326 371.878 218.376 432.112 153.53 442.493C151.542 442.811 150 444.509 150 446.522V470C150 472.209 151.791 474 154 474H180H239H298H324C326.209 474 328 472.209 328 470V446.522C328 444.509 326.458 442.811 324.47 442.493C259.624 432.112 258.674 371.878 294.42 364.542C296.433 364.129 298 362.435 298 360.38V360C298 357.791 296.209 356 294 356H239H184Z"/>
</mask>
<path fill-rule="evenodd" clip-rule="evenodd" d="M184 356C181.791 356 180 357.791 180 360V360.38C180 362.435 181.567 364.129 183.58 364.542C219.326 371.878 218.376 432.112 153.53 442.493C151.542 442.811 150 444.509 150 446.522V470C150 472.209 151.791 474 154 474H180H239H298H324C326.209 474 328 472.209 328 470V446.522C328 444.509 326.458 442.811 324.47 442.493C259.624 432.112 258.674 371.878 294.42 364.542C296.433 364.129 298 362.435 298 360.38V360C298 357.791 296.209 356 294 356H239H184Z" fill="#79DFC1" fill-opacity="0.5"/>
<path d="M294.42 364.542L291.404 349.848L294.42 364.542ZM324.47 442.493L326.841 427.681L324.47 442.493ZM153.53 442.493L151.159 427.681L153.53 442.493ZM195 360.38V360H165V360.38H195ZM155.901 457.304C192.924 451.377 215.397 430.247 220.913 405.659C226.285 381.712 214.132 355.5 186.596 349.848L180.565 379.236C188.775 380.921 194.019 388.493 191.641 399.092C189.407 409.05 178.982 423.227 151.159 427.681L155.901 457.304ZM165 470V446.522H135V470H165ZM180 459H154V489H180V459ZM239 459H180V489H239V459ZM239 489H298V459H239V489ZM298 489H324V459H298V489ZM343 470V446.522H313V470H343ZM326.841 427.681C299.018 423.227 288.593 409.05 286.359 399.092C283.981 388.493 289.225 380.921 297.435 379.236L291.404 349.848C263.868 355.5 251.715 381.712 257.087 405.659C262.603 430.247 285.076 451.377 322.099 457.304L326.841 427.681ZM313 360.38V360H283V360.38H313ZM294 341H239V371H294V341ZM184 371H239V341H184V371ZM313 360C313 349.507 304.493 341 294 341V371C287.925 371 283 366.075 283 360H313ZM297.435 379.236C305.47 377.587 313 370.489 313 360.38H283C283 354.381 287.396 350.671 291.404 349.848L297.435 379.236ZM343 446.522C343 436.649 335.61 429.085 326.841 427.681L322.099 457.304C317.306 456.537 313 452.368 313 446.522H343ZM135 470C135 480.493 143.507 489 154 489V459C160.075 459 165 463.925 165 470H135ZM324 489C334.493 489 343 480.493 343 470H313C313 463.925 317.925 459 324 459V489ZM151.159 427.681C142.39 429.085 135 436.649 135 446.522H165C165 452.368 160.694 456.537 155.901 457.304L151.159 427.681ZM195 360C195 366.075 190.075 371 184 371V341C173.507 341 165 349.507 165 360H195ZM165 360.38C165 370.489 172.53 377.587 180.565 379.236L186.596 349.848C190.604 350.671 195 354.381 195 360.38H165Z" fill="#4DD4AC" mask="url(#path-4-inside-1_176_9)"/>
</svg>
