<svg width="506" height="506" viewBox="0 0 506 506" fill="none" xmlns="http://www.w3.org/2000/svg">
<path d="M0 105C0 102.791 1.79086 101 4 101H205.5C207.709 101 209.5 99.2091 209.5 97V47.5C209.5 27.5 196.5 15 179.5 15H209.5C245.5 15 268.5 44.5 268.5 72.5V102.5V161.5V215C268.5 217.209 266.709 219 264.5 219H213.5C211.291 219 209.5 217.209 209.5 215V163.5C209.5 161.291 207.709 159.5 205.5 159.5H4C1.79086 159.5 0 157.709 0 155.5V105Z" fill="black"/>
<path d="M93.5 255C93.5 252.791 95.2909 251 97.5 251H380.5C382.709 251 384.5 252.791 384.5 255V335C384.5 337.209 382.709 339 380.5 339H97.5C95.2909 339 93.5 337.209 93.5 335V255Z" fill="black"/>
<path d="M416.5 255C416.5 252.791 418.291 251 420.5 251H450.5H501.5C503.709 251 505.512 252.795 505.397 255.001C503.378 293.667 472.262 313 450.5 313H420.5C418.291 313 416.5 311.209 416.5 309V255Z" fill="black"/>
<path fill-rule="evenodd" clip-rule="evenodd" d="M183.5 371C181.291 371 179.5 372.791 179.5 375V375.38C179.5 377.435 181.067 379.129 183.08 379.542C218.826 386.878 217.876 447.112 153.03 457.493C151.042 457.811 149.5 459.509 149.5 461.522V485C149.5 487.209 151.291 489 153.5 489H179.5H238.5H297.5H323.5C325.709 489 327.5 487.209 327.5 485V461.522C327.5 459.509 325.958 457.811 323.97 457.493C259.124 447.112 258.174 386.878 293.92 379.542C295.933 379.129 297.5 377.435 297.5 375.38V375C297.5 372.791 295.709 371 293.5 371H238.5H183.5Z" fill="black"/>
</svg>
