<svg width="630" height="390" viewBox="0 0 630 390" fill="none" xmlns="http://www.w3.org/2000/svg">
<rect width="630" height="390" fill="white"/>
<rect x="236" y="188" width="161" height="79" fill="#853BCE" fill-opacity="0.24" stroke="#853BCE" stroke-width="2"/>
<path d="M283.133 224V210.909H288.298C289.286 210.909 290.13 211.086 290.829 211.44C291.532 211.789 292.067 212.286 292.433 212.929C292.804 213.568 292.989 214.32 292.989 215.185C292.989 216.055 292.802 216.803 292.427 217.429C292.052 218.051 291.509 218.528 290.797 218.861C290.09 219.193 289.233 219.359 288.227 219.359H284.769V217.135H287.78C288.308 217.135 288.747 217.062 289.097 216.918C289.446 216.773 289.706 216.555 289.877 216.266C290.051 215.976 290.139 215.616 290.139 215.185C290.139 214.751 290.051 214.384 289.877 214.086C289.706 213.788 289.444 213.562 289.09 213.408C288.741 213.251 288.3 213.172 287.767 213.172H285.901V224H283.133ZM290.203 218.043L293.456 224H290.401L287.217 218.043H290.203ZM297.694 224.185C297.068 224.185 296.509 224.077 296.019 223.859C295.529 223.638 295.141 223.312 294.856 222.881C294.575 222.447 294.434 221.906 294.434 221.258C294.434 220.712 294.534 220.254 294.734 219.884C294.935 219.513 295.207 219.214 295.553 218.989C295.898 218.763 296.29 218.592 296.729 218.477C297.172 218.362 297.636 218.281 298.122 218.234C298.693 218.175 299.153 218.119 299.503 218.068C299.852 218.013 300.106 217.932 300.264 217.825C300.421 217.719 300.5 217.561 300.5 217.352V217.314C300.5 216.909 300.372 216.596 300.117 216.374C299.865 216.153 299.507 216.042 299.043 216.042C298.553 216.042 298.163 216.151 297.873 216.368C297.583 216.581 297.391 216.849 297.298 217.173L294.779 216.969C294.907 216.372 295.158 215.857 295.533 215.422C295.908 214.983 296.392 214.646 296.984 214.412C297.581 214.173 298.271 214.054 299.055 214.054C299.601 214.054 300.123 214.118 300.622 214.246C301.124 214.374 301.57 214.572 301.957 214.84C302.35 215.109 302.658 215.454 302.884 215.876C303.11 216.293 303.223 216.794 303.223 217.378V224H300.641V222.638H300.564C300.406 222.945 300.195 223.216 299.931 223.45C299.667 223.68 299.35 223.862 298.979 223.994C298.608 224.121 298.18 224.185 297.694 224.185ZM298.474 222.306C298.874 222.306 299.228 222.227 299.535 222.07C299.842 221.908 300.082 221.69 300.257 221.418C300.432 221.145 300.519 220.836 300.519 220.491V219.449C300.434 219.504 300.317 219.555 300.168 219.602C300.023 219.645 299.859 219.685 299.676 219.724C299.492 219.758 299.309 219.79 299.126 219.82C298.943 219.845 298.776 219.869 298.627 219.89C298.308 219.937 298.028 220.011 297.79 220.114C297.551 220.216 297.366 220.354 297.234 220.529C297.102 220.7 297.036 220.913 297.036 221.168C297.036 221.539 297.17 221.822 297.438 222.018C297.711 222.21 298.056 222.306 298.474 222.306ZM305.336 224V214.182H308.059V224H305.336ZM306.704 212.916C306.299 212.916 305.951 212.782 305.662 212.513C305.376 212.241 305.233 211.915 305.233 211.536C305.233 211.161 305.376 210.839 305.662 210.57C305.951 210.298 306.299 210.161 306.704 210.161C307.108 210.161 307.454 210.298 307.739 210.57C308.029 210.839 308.174 211.161 308.174 211.536C308.174 211.915 308.029 212.241 307.739 212.513C307.454 212.782 307.108 212.916 306.704 212.916ZM312.963 210.909V224H310.24V210.909H312.963ZM317.081 224L314.409 214.182H317.164L318.685 220.778H318.775L320.36 214.182H323.064L324.675 220.74H324.758L326.254 214.182H329.002L326.337 224H323.454L321.766 217.825H321.645L319.957 224H317.081ZM333.255 224.185C332.628 224.185 332.07 224.077 331.58 223.859C331.09 223.638 330.702 223.312 330.416 222.881C330.135 222.447 329.995 221.906 329.995 221.258C329.995 220.712 330.095 220.254 330.295 219.884C330.495 219.513 330.768 219.214 331.113 218.989C331.458 218.763 331.85 218.592 332.289 218.477C332.733 218.362 333.197 218.281 333.683 218.234C334.254 218.175 334.714 218.119 335.063 218.068C335.413 218.013 335.666 217.932 335.824 217.825C335.982 217.719 336.061 217.561 336.061 217.352V217.314C336.061 216.909 335.933 216.596 335.677 216.374C335.426 216.153 335.068 216.042 334.603 216.042C334.113 216.042 333.723 216.151 333.434 216.368C333.144 216.581 332.952 216.849 332.858 217.173L330.34 216.969C330.468 216.372 330.719 215.857 331.094 215.422C331.469 214.983 331.953 214.646 332.545 214.412C333.142 214.173 333.832 214.054 334.616 214.054C335.161 214.054 335.684 214.118 336.182 214.246C336.685 214.374 337.13 214.572 337.518 214.84C337.91 215.109 338.219 215.454 338.445 215.876C338.671 216.293 338.784 216.794 338.784 217.378V224H336.201V222.638H336.125C335.967 222.945 335.756 223.216 335.492 223.45C335.228 223.68 334.91 223.862 334.539 223.994C334.169 224.121 333.74 224.185 333.255 224.185ZM334.034 222.306C334.435 222.306 334.789 222.227 335.095 222.07C335.402 221.908 335.643 221.69 335.818 221.418C335.992 221.145 336.08 220.836 336.08 220.491V219.449C335.995 219.504 335.877 219.555 335.728 219.602C335.583 219.645 335.419 219.685 335.236 219.724C335.053 219.758 334.87 219.79 334.686 219.82C334.503 219.845 334.337 219.869 334.188 219.89C333.868 219.937 333.589 220.011 333.35 220.114C333.112 220.216 332.926 220.354 332.794 220.529C332.662 220.7 332.596 220.913 332.596 221.168C332.596 221.539 332.73 221.822 332.999 222.018C333.272 222.21 333.617 222.306 334.034 222.306ZM342.226 227.682C341.881 227.682 341.557 227.654 341.254 227.599C340.956 227.548 340.709 227.482 340.513 227.401L341.126 225.368C341.446 225.466 341.734 225.519 341.989 225.528C342.249 225.536 342.473 225.477 342.66 225.349C342.852 225.221 343.008 225.004 343.127 224.697L343.287 224.281L339.765 214.182H342.628L344.661 221.392H344.763L346.815 214.182H349.698L345.882 225.061C345.699 225.589 345.449 226.05 345.134 226.442C344.823 226.838 344.429 227.143 343.952 227.356C343.474 227.573 342.899 227.682 342.226 227.682ZM248.86 240.752C248.86 239.167 249.071 237.707 249.493 236.374C249.919 235.04 250.569 233.804 251.443 232.666H254.044C253.712 233.088 253.403 233.604 253.117 234.213C252.832 234.818 252.583 235.483 252.37 236.207C252.157 236.932 251.99 237.682 251.871 238.457C251.752 239.229 251.692 239.994 251.692 240.752C251.692 241.762 251.794 242.783 251.999 243.814C252.208 244.841 252.489 245.795 252.843 246.678C253.201 247.56 253.601 248.282 254.044 248.844H251.443C250.569 247.707 249.919 246.471 249.493 245.137C249.071 243.803 248.86 242.342 248.86 240.752ZM258.348 240.324V246H255.625V236.182H258.22V237.914H258.335C258.552 237.343 258.917 236.891 259.428 236.559C259.939 236.222 260.559 236.054 261.288 236.054C261.97 236.054 262.564 236.203 263.071 236.501C263.579 236.8 263.973 237.226 264.254 237.78C264.535 238.33 264.676 238.986 264.676 239.749V246H261.953V240.234C261.957 239.634 261.804 239.165 261.493 238.828C261.182 238.487 260.753 238.317 260.208 238.317C259.841 238.317 259.517 238.396 259.236 238.553C258.959 238.711 258.742 238.941 258.584 239.244C258.431 239.542 258.352 239.902 258.348 240.324ZM271.68 246.179C270.696 246.179 269.82 246.019 269.053 245.7C268.29 245.376 267.691 244.935 267.257 244.376C266.822 243.818 266.605 243.185 266.605 242.478C266.605 241.933 266.728 241.432 266.975 240.976C267.227 240.516 267.568 240.134 267.998 239.832C268.429 239.525 268.91 239.329 269.443 239.244V239.154C268.744 239.013 268.177 238.675 267.742 238.138C267.308 237.597 267.09 236.968 267.09 236.252C267.09 235.575 267.289 234.972 267.685 234.443C268.081 233.911 268.625 233.493 269.315 233.19C270.009 232.884 270.798 232.73 271.68 232.73C272.562 232.73 273.348 232.884 274.039 233.19C274.733 233.497 275.279 233.917 275.675 234.45C276.071 234.978 276.272 235.579 276.276 236.252C276.272 236.972 276.05 237.601 275.611 238.138C275.172 238.675 274.61 239.013 273.924 239.154V239.244C274.448 239.329 274.923 239.525 275.349 239.832C275.779 240.134 276.12 240.516 276.372 240.976C276.627 241.432 276.757 241.933 276.762 242.478C276.757 243.185 276.538 243.818 276.103 244.376C275.669 244.935 275.068 245.376 274.301 245.7C273.538 246.019 272.664 246.179 271.68 246.179ZM271.68 244.146C272.119 244.146 272.502 244.067 272.831 243.91C273.159 243.748 273.414 243.526 273.598 243.245C273.785 242.96 273.879 242.631 273.879 242.261C273.879 241.881 273.783 241.547 273.591 241.257C273.399 240.963 273.139 240.733 272.811 240.567C272.483 240.396 272.106 240.311 271.68 240.311C271.258 240.311 270.881 240.396 270.549 240.567C270.216 240.733 269.954 240.963 269.762 241.257C269.575 241.547 269.481 241.881 269.481 242.261C269.481 242.631 269.573 242.96 269.756 243.245C269.939 243.526 270.197 243.748 270.529 243.91C270.862 244.067 271.245 244.146 271.68 244.146ZM271.68 238.298C272.046 238.298 272.372 238.223 272.658 238.074C272.943 237.925 273.167 237.718 273.329 237.454C273.491 237.19 273.572 236.885 273.572 236.54C273.572 236.199 273.491 235.901 273.329 235.645C273.167 235.385 272.946 235.183 272.664 235.038C272.383 234.888 272.055 234.814 271.68 234.814C271.309 234.814 270.981 234.888 270.696 235.038C270.41 235.183 270.186 235.385 270.024 235.645C269.867 235.901 269.788 236.199 269.788 236.54C269.788 236.885 269.869 237.19 270.031 237.454C270.193 237.718 270.416 237.925 270.702 238.074C270.987 238.223 271.313 238.298 271.68 238.298ZM281.445 240.324V246H278.722V236.182H281.318V237.914H281.433C281.65 237.343 282.014 236.891 282.526 236.559C283.037 236.222 283.657 236.054 284.386 236.054C285.068 236.054 285.662 236.203 286.169 236.501C286.676 236.8 287.07 237.226 287.352 237.78C287.633 238.33 287.774 238.986 287.774 239.749V246H285.051V240.234C285.055 239.634 284.901 239.165 284.59 238.828C284.279 238.487 283.851 238.317 283.305 238.317C282.939 238.317 282.615 238.396 282.334 238.553C282.057 238.711 281.84 238.941 281.682 239.244C281.528 239.542 281.45 239.902 281.445 240.324ZM298.522 246.192C297.516 246.192 296.651 245.979 295.927 245.553C295.206 245.122 294.652 244.526 294.265 243.763C293.881 243 293.689 242.122 293.689 241.129C293.689 240.124 293.883 239.241 294.271 238.483C294.663 237.72 295.219 237.126 295.939 236.7C296.66 236.269 297.516 236.054 298.509 236.054C299.366 236.054 300.116 236.21 300.759 236.521C301.402 236.832 301.912 237.268 302.287 237.831C302.662 238.393 302.868 239.054 302.907 239.812H300.337C300.265 239.322 300.073 238.928 299.762 238.63C299.455 238.327 299.052 238.176 298.554 238.176C298.132 238.176 297.763 238.291 297.448 238.521C297.137 238.747 296.894 239.077 296.719 239.512C296.544 239.947 296.457 240.473 296.457 241.091C296.457 241.717 296.542 242.25 296.713 242.689C296.888 243.128 297.133 243.462 297.448 243.692C297.763 243.923 298.132 244.038 298.554 244.038C298.865 244.038 299.144 243.974 299.391 243.846C299.642 243.718 299.849 243.533 300.011 243.29C300.177 243.043 300.286 242.746 300.337 242.401H302.907C302.864 243.151 302.66 243.812 302.293 244.383C301.931 244.95 301.43 245.393 300.791 245.712C300.152 246.032 299.395 246.192 298.522 246.192ZM309.086 246.192C308.093 246.192 307.235 245.981 306.51 245.559C305.79 245.133 305.234 244.54 304.842 243.782C304.45 243.019 304.254 242.135 304.254 241.129C304.254 240.115 304.45 239.229 304.842 238.47C305.234 237.707 305.79 237.115 306.51 236.693C307.235 236.267 308.093 236.054 309.086 236.054C310.079 236.054 310.936 236.267 311.656 236.693C312.38 237.115 312.938 237.707 313.331 238.47C313.723 239.229 313.919 240.115 313.919 241.129C313.919 242.135 313.723 243.019 313.331 243.782C312.938 244.54 312.38 245.133 311.656 245.559C310.936 245.981 310.079 246.192 309.086 246.192ZM309.099 244.082C309.551 244.082 309.928 243.955 310.23 243.699C310.533 243.439 310.761 243.085 310.914 242.638C311.072 242.19 311.151 241.681 311.151 241.11C311.151 240.539 311.072 240.03 310.914 239.582C310.761 239.135 310.533 238.781 310.23 238.521C309.928 238.261 309.551 238.131 309.099 238.131C308.643 238.131 308.259 238.261 307.948 238.521C307.642 238.781 307.409 239.135 307.252 239.582C307.098 240.03 307.022 240.539 307.022 241.11C307.022 241.681 307.098 242.19 307.252 242.638C307.409 243.085 307.642 243.439 307.948 243.699C308.259 243.955 308.643 244.082 309.099 244.082ZM318.412 240.324V246H315.689V236.182H318.284V237.914H318.399C318.617 237.343 318.981 236.891 319.492 236.559C320.004 236.222 320.624 236.054 321.353 236.054C322.034 236.054 322.629 236.203 323.136 236.501C323.643 236.8 324.037 237.226 324.318 237.78C324.6 238.33 324.74 238.986 324.74 239.749V246H322.017V240.234C322.022 239.634 321.868 239.165 321.557 238.828C321.246 238.487 320.818 238.317 320.272 238.317C319.906 238.317 319.582 238.396 319.301 238.553C319.024 238.711 318.806 238.941 318.649 239.244C318.495 239.542 318.416 239.902 318.412 240.324ZM332.109 236.182V238.227H326.196V236.182H332.109ZM327.538 233.83H330.261V242.983C330.261 243.234 330.3 243.43 330.377 243.571C330.453 243.707 330.56 243.803 330.696 243.859C330.837 243.914 330.999 243.942 331.182 243.942C331.31 243.942 331.438 243.931 331.565 243.91C331.693 243.884 331.791 243.865 331.859 243.852L332.288 245.879C332.151 245.921 331.96 245.97 331.712 246.026C331.465 246.085 331.165 246.121 330.811 246.134C330.155 246.16 329.58 246.072 329.085 245.872C328.595 245.672 328.214 245.361 327.941 244.939C327.668 244.517 327.534 243.984 327.538 243.341V233.83ZM336.682 246.185C336.056 246.185 335.498 246.077 335.008 245.859C334.517 245.638 334.13 245.312 333.844 244.881C333.563 244.447 333.422 243.906 333.422 243.258C333.422 242.712 333.522 242.254 333.723 241.884C333.923 241.513 334.196 241.214 334.541 240.989C334.886 240.763 335.278 240.592 335.717 240.477C336.16 240.362 336.625 240.281 337.111 240.234C337.682 240.175 338.142 240.119 338.491 240.068C338.841 240.013 339.094 239.932 339.252 239.825C339.41 239.719 339.488 239.561 339.488 239.352V239.314C339.488 238.909 339.361 238.596 339.105 238.374C338.853 238.153 338.495 238.042 338.031 238.042C337.541 238.042 337.151 238.151 336.861 238.368C336.571 238.581 336.38 238.849 336.286 239.173L333.767 238.969C333.895 238.372 334.147 237.857 334.522 237.422C334.897 236.983 335.38 236.646 335.973 236.412C336.569 236.173 337.26 236.054 338.044 236.054C338.589 236.054 339.111 236.118 339.61 236.246C340.113 236.374 340.558 236.572 340.946 236.84C341.338 237.109 341.647 237.454 341.873 237.876C342.098 238.293 342.211 238.794 342.211 239.378V246H339.629V244.638H339.552C339.395 244.945 339.184 245.216 338.919 245.45C338.655 245.68 338.338 245.862 337.967 245.994C337.596 246.121 337.168 246.185 336.682 246.185ZM337.462 244.306C337.863 244.306 338.216 244.227 338.523 244.07C338.83 243.908 339.071 243.69 339.245 243.418C339.42 243.145 339.508 242.836 339.508 242.491V241.449C339.422 241.504 339.305 241.555 339.156 241.602C339.011 241.645 338.847 241.685 338.664 241.724C338.481 241.758 338.297 241.79 338.114 241.82C337.931 241.845 337.765 241.869 337.616 241.89C337.296 241.937 337.017 242.011 336.778 242.114C336.54 242.216 336.354 242.354 336.222 242.529C336.09 242.7 336.024 242.913 336.024 243.168C336.024 243.539 336.158 243.822 336.427 244.018C336.699 244.21 337.044 244.306 337.462 244.306ZM344.324 246V236.182H347.047V246H344.324ZM345.692 234.916C345.287 234.916 344.94 234.782 344.65 234.513C344.364 234.241 344.222 233.915 344.222 233.536C344.222 233.161 344.364 232.839 344.65 232.57C344.94 232.298 345.287 232.161 345.692 232.161C346.097 232.161 346.442 232.298 346.727 232.57C347.017 232.839 347.162 233.161 347.162 233.536C347.162 233.915 347.017 234.241 346.727 234.513C346.442 234.782 346.097 234.916 345.692 234.916ZM351.951 240.324V246H349.228V236.182H351.823V237.914H351.938C352.156 237.343 352.52 236.891 353.032 236.559C353.543 236.222 354.163 236.054 354.892 236.054C355.573 236.054 356.168 236.203 356.675 236.501C357.182 236.8 357.576 237.226 357.858 237.78C358.139 238.33 358.279 238.986 358.279 239.749V246H355.556V240.234C355.561 239.634 355.407 239.165 355.096 238.828C354.785 238.487 354.357 238.317 353.811 238.317C353.445 238.317 353.121 238.396 352.84 238.553C352.563 238.711 352.345 238.941 352.188 239.244C352.034 239.542 351.956 239.902 351.951 240.324ZM364.9 246.192C363.89 246.192 363.021 245.987 362.292 245.578C361.568 245.165 361.009 244.581 360.617 243.827C360.225 243.068 360.029 242.171 360.029 241.136C360.029 240.126 360.225 239.239 360.617 238.477C361.009 237.714 361.561 237.119 362.273 236.693C362.989 236.267 363.828 236.054 364.791 236.054C365.439 236.054 366.042 236.158 366.6 236.367C367.163 236.572 367.653 236.881 368.07 237.294C368.492 237.707 368.82 238.227 369.055 238.854C369.289 239.476 369.406 240.205 369.406 241.04V241.788H361.116V240.1H366.843C366.843 239.708 366.758 239.361 366.587 239.058C366.417 238.756 366.18 238.519 365.878 238.349C365.58 238.174 365.232 238.087 364.836 238.087C364.423 238.087 364.056 238.183 363.737 238.374C363.421 238.562 363.174 238.815 362.995 239.135C362.816 239.45 362.725 239.802 362.72 240.19V241.794C362.72 242.28 362.81 242.7 362.989 243.053C363.172 243.407 363.43 243.68 363.762 243.871C364.095 244.063 364.489 244.159 364.945 244.159C365.247 244.159 365.524 244.116 365.776 244.031C366.027 243.946 366.242 243.818 366.421 243.648C366.6 243.477 366.737 243.268 366.83 243.021L369.349 243.188C369.221 243.793 368.959 244.321 368.563 244.773C368.171 245.22 367.663 245.57 367.041 245.821C366.423 246.068 365.71 246.192 364.9 246.192ZM371.183 246V236.182H373.823V237.895H373.926C374.104 237.286 374.405 236.825 374.827 236.514C375.249 236.199 375.734 236.041 376.284 236.041C376.421 236.041 376.568 236.05 376.725 236.067C376.883 236.084 377.021 236.107 377.141 236.137V238.553C377.013 238.515 376.836 238.481 376.61 238.451C376.384 238.421 376.178 238.406 375.99 238.406C375.59 238.406 375.232 238.494 374.916 238.668C374.605 238.839 374.358 239.077 374.175 239.384C373.996 239.691 373.906 240.045 373.906 240.445V246H371.183ZM383.138 240.752C383.138 242.342 382.925 243.803 382.499 245.137C382.077 246.471 381.429 247.707 380.556 248.844H377.954C378.286 248.423 378.595 247.907 378.881 247.298C379.166 246.688 379.416 246.023 379.629 245.303C379.842 244.579 380.008 243.829 380.127 243.053C380.247 242.278 380.306 241.511 380.306 240.752C380.306 239.742 380.202 238.724 379.993 237.697C379.789 236.665 379.507 235.711 379.149 234.833C378.796 233.951 378.397 233.229 377.954 232.666H380.556C381.429 233.804 382.077 235.04 382.499 236.374C382.925 237.707 383.138 239.167 383.138 240.752Z" fill="black"/>
<rect x="236" y="80" width="161" height="55" fill="#F6821F" fill-opacity="0.24" stroke="#F6821F" stroke-width="2"/>
<path d="M279.098 105.547H275.987C275.93 105.144 275.814 104.787 275.639 104.474C275.464 104.157 275.239 103.887 274.964 103.665C274.69 103.442 274.373 103.272 274.013 103.153C273.658 103.035 273.272 102.976 272.855 102.976C272.102 102.976 271.446 103.163 270.888 103.537C270.329 103.906 269.896 104.446 269.588 105.156C269.28 105.862 269.126 106.719 269.126 107.727C269.126 108.764 269.28 109.635 269.588 110.341C269.901 111.046 270.336 111.579 270.895 111.939C271.454 112.299 272.1 112.479 272.834 112.479C273.246 112.479 273.627 112.424 273.977 112.315C274.332 112.206 274.647 112.048 274.922 111.839C275.196 111.626 275.424 111.368 275.604 111.065C275.788 110.762 275.916 110.417 275.987 110.028L279.098 110.043C279.018 110.71 278.816 111.354 278.494 111.974C278.177 112.59 277.749 113.142 277.209 113.629C276.674 114.112 276.035 114.496 275.291 114.78C274.553 115.059 273.717 115.199 272.784 115.199C271.487 115.199 270.327 114.905 269.304 114.318C268.286 113.731 267.481 112.881 266.889 111.768C266.302 110.656 266.009 109.309 266.009 107.727C266.009 106.141 266.307 104.792 266.903 103.679C267.5 102.566 268.31 101.719 269.332 101.136C270.355 100.549 271.506 100.256 272.784 100.256C273.627 100.256 274.408 100.374 275.128 100.611C275.852 100.848 276.494 101.193 277.053 101.648C277.611 102.098 278.066 102.649 278.416 103.303C278.771 103.956 278.999 104.704 279.098 105.547ZM284.272 100.455V115H281.246V100.455H284.272ZM291.625 115.213C290.521 115.213 289.567 114.979 288.762 114.51C287.962 114.036 287.344 113.378 286.909 112.536C286.473 111.688 286.255 110.705 286.255 109.588C286.255 108.461 286.473 107.476 286.909 106.634C287.344 105.786 287.962 105.128 288.762 104.659C289.567 104.186 290.521 103.949 291.625 103.949C292.728 103.949 293.68 104.186 294.48 104.659C295.285 105.128 295.905 105.786 296.341 106.634C296.776 107.476 296.994 108.461 296.994 109.588C296.994 110.705 296.776 111.688 296.341 112.536C295.905 113.378 295.285 114.036 294.48 114.51C293.68 114.979 292.728 115.213 291.625 115.213ZM291.639 112.869C292.141 112.869 292.56 112.727 292.896 112.443C293.232 112.154 293.485 111.761 293.656 111.264C293.831 110.767 293.919 110.201 293.919 109.567C293.919 108.932 293.831 108.366 293.656 107.869C293.485 107.372 293.232 106.979 292.896 106.69C292.56 106.402 292.141 106.257 291.639 106.257C291.132 106.257 290.706 106.402 290.36 106.69C290.02 106.979 289.761 107.372 289.586 107.869C289.416 108.366 289.331 108.932 289.331 109.567C289.331 110.201 289.416 110.767 289.586 111.264C289.761 111.761 290.02 112.154 290.36 112.443C290.706 112.727 291.132 112.869 291.639 112.869ZM305.957 110.355V104.091H308.983V115H306.078V113.018H305.964C305.718 113.658 305.308 114.171 304.735 114.56C304.167 114.948 303.474 115.142 302.654 115.142C301.925 115.142 301.284 114.976 300.73 114.645C300.176 114.313 299.743 113.842 299.43 113.232C299.122 112.621 298.966 111.889 298.961 111.037V104.091H301.987V110.497C301.992 111.141 302.164 111.65 302.505 112.024C302.846 112.398 303.303 112.585 303.876 112.585C304.241 112.585 304.582 112.502 304.899 112.337C305.216 112.166 305.472 111.915 305.666 111.584C305.865 111.252 305.962 110.843 305.957 110.355ZM315.423 115.178C314.594 115.178 313.844 114.964 313.171 114.538C312.504 114.107 311.973 113.475 311.58 112.642C311.192 111.804 310.998 110.777 310.998 109.56C310.998 108.31 311.199 107.27 311.602 106.442C312.004 105.608 312.539 104.986 313.207 104.574C313.879 104.157 314.615 103.949 315.415 103.949C316.026 103.949 316.535 104.053 316.942 104.261C317.354 104.465 317.686 104.721 317.937 105.028C318.192 105.331 318.387 105.63 318.519 105.923H318.612V100.455H321.63V115H318.647V113.253H318.519C318.377 113.556 318.176 113.857 317.915 114.155C317.66 114.448 317.326 114.692 316.914 114.886C316.507 115.08 316.01 115.178 315.423 115.178ZM316.381 112.77C316.869 112.77 317.281 112.637 317.617 112.372C317.958 112.102 318.219 111.726 318.398 111.243C318.583 110.76 318.675 110.194 318.675 109.545C318.675 108.897 318.585 108.333 318.406 107.855C318.226 107.377 317.965 107.008 317.624 106.747C317.283 106.487 316.869 106.357 316.381 106.357C315.884 106.357 315.465 106.491 315.124 106.761C314.783 107.031 314.525 107.405 314.35 107.884C314.175 108.362 314.087 108.916 314.087 109.545C314.087 110.18 314.175 110.741 314.35 111.229C314.53 111.712 314.788 112.09 315.124 112.365C315.465 112.635 315.884 112.77 316.381 112.77ZM329.984 104.091V106.364H323.251V104.091H329.984ZM324.792 115V103.303C324.792 102.512 324.946 101.856 325.254 101.335C325.566 100.814 325.993 100.424 326.532 100.163C327.072 99.9029 327.685 99.7727 328.372 99.7727C328.836 99.7727 329.26 99.8082 329.643 99.8793C330.031 99.9503 330.32 100.014 330.51 100.071L329.97 102.344C329.851 102.306 329.705 102.27 329.529 102.237C329.359 102.204 329.184 102.188 329.004 102.188C328.559 102.188 328.249 102.292 328.074 102.5C327.898 102.704 327.811 102.99 327.811 103.359V115H324.792ZM334.858 100.455V115H331.832V100.455H334.858ZM340.392 115.206C339.696 115.206 339.076 115.085 338.532 114.844C337.987 114.598 337.556 114.235 337.239 113.757C336.926 113.274 336.77 112.673 336.77 111.953C336.77 111.347 336.882 110.838 337.104 110.426C337.327 110.014 337.63 109.683 338.013 109.432C338.397 109.181 338.832 108.991 339.32 108.864C339.812 108.736 340.328 108.646 340.868 108.594C341.503 108.527 342.014 108.466 342.402 108.409C342.791 108.348 343.072 108.258 343.248 108.139C343.423 108.021 343.51 107.846 343.51 107.614V107.571C343.51 107.121 343.368 106.773 343.084 106.527C342.805 106.281 342.407 106.158 341.891 106.158C341.346 106.158 340.913 106.278 340.591 106.52C340.269 106.757 340.056 107.055 339.952 107.415L337.154 107.188C337.296 106.525 337.575 105.952 337.992 105.469C338.408 104.981 338.946 104.607 339.604 104.347C340.267 104.081 341.034 103.949 341.905 103.949C342.511 103.949 343.091 104.02 343.645 104.162C344.204 104.304 344.699 104.524 345.13 104.822C345.565 105.121 345.908 105.504 346.159 105.973C346.41 106.437 346.536 106.993 346.536 107.642V115H343.667V113.487H343.581C343.406 113.828 343.172 114.129 342.878 114.389C342.585 114.645 342.232 114.846 341.82 114.993C341.408 115.135 340.932 115.206 340.392 115.206ZM341.259 113.118C341.704 113.118 342.097 113.03 342.438 112.855C342.779 112.675 343.046 112.434 343.24 112.131C343.435 111.828 343.532 111.484 343.532 111.101V109.943C343.437 110.005 343.307 110.062 343.141 110.114C342.98 110.161 342.798 110.206 342.594 110.249C342.391 110.286 342.187 110.322 341.983 110.355C341.78 110.384 341.595 110.41 341.429 110.433C341.074 110.485 340.764 110.568 340.499 110.682C340.234 110.795 340.028 110.949 339.881 111.143C339.734 111.333 339.661 111.57 339.661 111.854C339.661 112.266 339.81 112.58 340.108 112.798C340.411 113.011 340.795 113.118 341.259 113.118ZM348.883 115V104.091H351.816V105.994H351.93C352.129 105.317 352.463 104.806 352.931 104.46C353.4 104.11 353.94 103.935 354.551 103.935C354.702 103.935 354.866 103.944 355.041 103.963C355.216 103.982 355.37 104.008 355.502 104.041V106.726C355.36 106.683 355.164 106.645 354.913 106.612C354.662 106.579 354.432 106.562 354.224 106.562C353.779 106.562 353.381 106.66 353.031 106.854C352.685 107.043 352.411 107.308 352.207 107.649C352.008 107.99 351.909 108.383 351.909 108.828V115H348.883ZM361.531 115.213C360.408 115.213 359.442 114.986 358.633 114.531C357.828 114.072 357.208 113.423 356.772 112.585C356.336 111.742 356.119 110.746 356.119 109.595C356.119 108.473 356.336 107.488 356.772 106.641C357.208 105.793 357.821 105.133 358.612 104.659C359.407 104.186 360.34 103.949 361.41 103.949C362.129 103.949 362.799 104.065 363.42 104.297C364.045 104.524 364.589 104.867 365.053 105.327C365.522 105.786 365.887 106.364 366.147 107.06C366.407 107.751 366.538 108.561 366.538 109.489V110.32H357.326V108.445H363.69C363.69 108.009 363.595 107.623 363.406 107.287C363.216 106.951 362.953 106.688 362.617 106.499C362.286 106.304 361.9 106.207 361.46 106.207C361 106.207 360.593 106.314 360.238 106.527C359.888 106.735 359.613 107.017 359.414 107.372C359.215 107.723 359.113 108.113 359.109 108.544V110.327C359.109 110.866 359.208 111.333 359.407 111.726C359.611 112.119 359.897 112.422 360.266 112.635C360.636 112.848 361.074 112.955 361.58 112.955C361.916 112.955 362.224 112.907 362.504 112.812C362.783 112.718 363.022 112.576 363.221 112.386C363.42 112.197 363.571 111.965 363.675 111.69L366.474 111.875C366.332 112.547 366.04 113.134 365.6 113.636C365.165 114.134 364.601 114.522 363.91 114.801C363.223 115.076 362.43 115.213 361.531 115.213Z" fill="black"/>
<rect x="236" y="312" width="161" height="55" fill="#3ECF8E" fill-opacity="0.24" stroke="#3ECF8E" stroke-width="2"/>
<path d="M278.284 339.202L275.514 339.372C275.467 339.135 275.365 338.922 275.209 338.733C275.053 338.539 274.847 338.385 274.591 338.271C274.34 338.153 274.039 338.094 273.689 338.094C273.22 338.094 272.825 338.193 272.503 338.392C272.181 338.586 272.02 338.847 272.02 339.173C272.02 339.434 272.124 339.654 272.332 339.834C272.541 340.014 272.898 340.158 273.405 340.267L275.379 340.665C276.44 340.883 277.231 341.233 277.751 341.716C278.272 342.199 278.533 342.833 278.533 343.619C278.533 344.334 278.322 344.962 277.901 345.501C277.484 346.041 276.911 346.463 276.182 346.766C275.457 347.064 274.622 347.213 273.675 347.213C272.231 347.213 271.08 346.912 270.223 346.311C269.371 345.705 268.871 344.881 268.724 343.839L271.7 343.683C271.79 344.124 272.008 344.46 272.354 344.692C272.699 344.919 273.142 345.033 273.682 345.033C274.212 345.033 274.638 344.931 274.96 344.727C275.287 344.519 275.453 344.251 275.457 343.925C275.453 343.65 275.337 343.425 275.109 343.25C274.882 343.07 274.532 342.933 274.058 342.838L272.169 342.462C271.104 342.249 270.311 341.879 269.79 341.354C269.274 340.828 269.016 340.158 269.016 339.344C269.016 338.643 269.205 338.039 269.584 337.533C269.967 337.026 270.505 336.635 271.196 336.361C271.892 336.086 272.706 335.949 273.639 335.949C275.017 335.949 276.101 336.24 276.892 336.822C277.688 337.405 278.152 338.198 278.284 339.202ZM287.434 342.355V336.091H290.459V347H287.554V345.018H287.441C287.194 345.658 286.785 346.171 286.212 346.56C285.644 346.948 284.95 347.142 284.131 347.142C283.402 347.142 282.76 346.976 282.206 346.645C281.652 346.313 281.219 345.842 280.907 345.232C280.599 344.621 280.443 343.889 280.438 343.037V336.091H283.463V342.497C283.468 343.141 283.641 343.65 283.982 344.024C284.323 344.398 284.78 344.585 285.353 344.585C285.717 344.585 286.058 344.502 286.375 344.337C286.693 344.166 286.948 343.915 287.142 343.584C287.341 343.252 287.438 342.843 287.434 342.355ZM292.879 351.091V336.091H295.862V337.923H295.997C296.13 337.63 296.321 337.331 296.572 337.028C296.828 336.721 297.16 336.465 297.567 336.261C297.979 336.053 298.49 335.949 299.101 335.949C299.896 335.949 300.63 336.157 301.303 336.574C301.975 336.986 302.512 337.608 302.915 338.442C303.317 339.27 303.518 340.31 303.518 341.56C303.518 342.777 303.322 343.804 302.929 344.642C302.541 345.475 302.01 346.107 301.338 346.538C300.67 346.964 299.922 347.178 299.094 347.178C298.507 347.178 298.007 347.08 297.595 346.886C297.188 346.692 296.854 346.448 296.594 346.155C296.333 345.857 296.134 345.556 295.997 345.253H295.905V351.091H292.879ZM295.841 341.545C295.841 342.194 295.931 342.76 296.111 343.243C296.291 343.726 296.551 344.102 296.892 344.372C297.233 344.637 297.647 344.77 298.135 344.77C298.627 344.77 299.044 344.635 299.385 344.365C299.726 344.09 299.984 343.712 300.159 343.229C300.339 342.741 300.429 342.18 300.429 341.545C300.429 340.916 300.341 340.362 300.166 339.884C299.991 339.405 299.733 339.031 299.392 338.761C299.051 338.491 298.632 338.357 298.135 338.357C297.643 338.357 297.226 338.487 296.885 338.747C296.549 339.008 296.291 339.377 296.111 339.855C295.931 340.333 295.841 340.897 295.841 341.545ZM308.646 347.206C307.95 347.206 307.33 347.085 306.786 346.844C306.241 346.598 305.81 346.235 305.493 345.757C305.18 345.274 305.024 344.673 305.024 343.953C305.024 343.347 305.135 342.838 305.358 342.426C305.58 342.014 305.884 341.683 306.267 341.432C306.651 341.181 307.086 340.991 307.574 340.864C308.066 340.736 308.582 340.646 309.122 340.594C309.757 340.527 310.268 340.466 310.656 340.409C311.045 340.348 311.326 340.258 311.501 340.139C311.677 340.021 311.764 339.846 311.764 339.614V339.571C311.764 339.121 311.622 338.773 311.338 338.527C311.059 338.281 310.661 338.158 310.145 338.158C309.6 338.158 309.167 338.278 308.845 338.52C308.523 338.757 308.31 339.055 308.206 339.415L305.408 339.188C305.55 338.525 305.829 337.952 306.246 337.469C306.662 336.981 307.2 336.607 307.858 336.347C308.521 336.081 309.288 335.949 310.159 335.949C310.765 335.949 311.345 336.02 311.899 336.162C312.458 336.304 312.953 336.524 313.384 336.822C313.819 337.121 314.162 337.504 314.413 337.973C314.664 338.437 314.79 338.993 314.79 339.642V347H311.92V345.487H311.835C311.66 345.828 311.426 346.129 311.132 346.389C310.839 346.645 310.486 346.846 310.074 346.993C309.662 347.135 309.186 347.206 308.646 347.206ZM309.513 345.118C309.958 345.118 310.351 345.03 310.692 344.855C311.033 344.675 311.3 344.434 311.494 344.131C311.688 343.828 311.786 343.484 311.786 343.101V341.943C311.691 342.005 311.561 342.062 311.395 342.114C311.234 342.161 311.052 342.206 310.848 342.249C310.644 342.286 310.441 342.322 310.237 342.355C310.034 342.384 309.849 342.41 309.683 342.433C309.328 342.485 309.018 342.568 308.753 342.682C308.488 342.795 308.282 342.949 308.135 343.143C307.988 343.333 307.915 343.57 307.915 343.854C307.915 344.266 308.064 344.58 308.362 344.798C308.665 345.011 309.049 345.118 309.513 345.118ZM317.194 347V332.455H320.219V337.923H320.312C320.444 337.63 320.636 337.331 320.887 337.028C321.143 336.721 321.474 336.465 321.881 336.261C322.293 336.053 322.805 335.949 323.415 335.949C324.211 335.949 324.945 336.157 325.617 336.574C326.29 336.986 326.827 337.608 327.229 338.442C327.632 339.27 327.833 340.31 327.833 341.56C327.833 342.777 327.637 343.804 327.244 344.642C326.855 345.475 326.325 346.107 325.653 346.538C324.985 346.964 324.237 347.178 323.408 347.178C322.821 347.178 322.322 347.08 321.91 346.886C321.503 346.692 321.169 346.448 320.908 346.155C320.648 345.857 320.449 345.556 320.312 345.253H320.177V347H317.194ZM320.156 341.545C320.156 342.194 320.246 342.76 320.425 343.243C320.605 343.726 320.866 344.102 321.207 344.372C321.548 344.637 321.962 344.77 322.45 344.77C322.942 344.77 323.359 344.635 323.7 344.365C324.04 344.09 324.299 343.712 324.474 343.229C324.654 342.741 324.744 342.18 324.744 341.545C324.744 340.916 324.656 340.362 324.481 339.884C324.306 339.405 324.048 339.031 323.707 338.761C323.366 338.491 322.947 338.357 322.45 338.357C321.957 338.357 321.54 338.487 321.2 338.747C320.863 339.008 320.605 339.377 320.425 339.855C320.246 340.333 320.156 340.897 320.156 341.545ZM332.963 347.206C332.267 347.206 331.646 347.085 331.102 346.844C330.557 346.598 330.127 346.235 329.809 345.757C329.497 345.274 329.341 344.673 329.341 343.953C329.341 343.347 329.452 342.838 329.674 342.426C329.897 342.014 330.2 341.683 330.583 341.432C330.967 341.181 331.403 340.991 331.89 340.864C332.383 340.736 332.899 340.646 333.439 340.594C334.073 340.527 334.584 340.466 334.973 340.409C335.361 340.348 335.643 340.258 335.818 340.139C335.993 340.021 336.081 339.846 336.081 339.614V339.571C336.081 339.121 335.939 338.773 335.654 338.527C335.375 338.281 334.977 338.158 334.461 338.158C333.917 338.158 333.484 338.278 333.162 338.52C332.84 338.757 332.627 339.055 332.522 339.415L329.724 339.188C329.866 338.525 330.145 337.952 330.562 337.469C330.979 336.981 331.516 336.607 332.174 336.347C332.837 336.081 333.604 335.949 334.475 335.949C335.082 335.949 335.662 336.02 336.216 336.162C336.774 336.304 337.269 336.524 337.7 336.822C338.136 337.121 338.479 337.504 338.73 337.973C338.981 338.437 339.106 338.993 339.106 339.642V347H336.237V345.487H336.152C335.976 345.828 335.742 346.129 335.449 346.389C335.155 346.645 334.802 346.846 334.39 346.993C333.978 347.135 333.502 347.206 332.963 347.206ZM333.829 345.118C334.274 345.118 334.667 345.03 335.008 344.855C335.349 344.675 335.617 344.434 335.811 344.131C336.005 343.828 336.102 343.484 336.102 343.101V341.943C336.007 342.005 335.877 342.062 335.711 342.114C335.55 342.161 335.368 342.206 335.164 342.249C334.961 342.286 334.757 342.322 334.554 342.355C334.35 342.384 334.165 342.41 334 342.433C333.645 342.485 333.334 342.568 333.069 342.682C332.804 342.795 332.598 342.949 332.451 343.143C332.305 343.333 332.231 343.57 332.231 343.854C332.231 344.266 332.38 344.58 332.679 344.798C332.982 345.011 333.365 345.118 333.829 345.118ZM350.53 339.202L347.76 339.372C347.713 339.135 347.611 338.922 347.455 338.733C347.299 338.539 347.093 338.385 346.837 338.271C346.586 338.153 346.285 338.094 345.935 338.094C345.466 338.094 345.071 338.193 344.749 338.392C344.427 338.586 344.266 338.847 344.266 339.173C344.266 339.434 344.37 339.654 344.578 339.834C344.787 340.014 345.144 340.158 345.651 340.267L347.625 340.665C348.686 340.883 349.477 341.233 349.998 341.716C350.518 342.199 350.779 342.833 350.779 343.619C350.779 344.334 350.568 344.962 350.147 345.501C349.73 346.041 349.157 346.463 348.428 346.766C347.703 347.064 346.868 347.213 345.921 347.213C344.477 347.213 343.326 346.912 342.469 346.311C341.617 345.705 341.117 344.881 340.971 343.839L343.946 343.683C344.036 344.124 344.254 344.46 344.6 344.692C344.945 344.919 345.388 345.033 345.928 345.033C346.458 345.033 346.884 344.931 347.206 344.727C347.533 344.519 347.699 344.251 347.703 343.925C347.699 343.65 347.583 343.425 347.355 343.25C347.128 343.07 346.778 342.933 346.304 342.838L344.415 342.462C343.35 342.249 342.557 341.879 342.036 341.354C341.52 340.828 341.262 340.158 341.262 339.344C341.262 338.643 341.451 338.039 341.83 337.533C342.213 337.026 342.751 336.635 343.442 336.361C344.138 336.086 344.953 335.949 345.885 335.949C347.263 335.949 348.347 336.24 349.138 336.822C349.934 337.405 350.398 338.198 350.53 339.202ZM357.656 347.213C356.533 347.213 355.567 346.986 354.758 346.531C353.953 346.072 353.333 345.423 352.897 344.585C352.461 343.742 352.244 342.746 352.244 341.595C352.244 340.473 352.461 339.488 352.897 338.641C353.333 337.793 353.946 337.133 354.737 336.659C355.532 336.186 356.465 335.949 357.535 335.949C358.254 335.949 358.924 336.065 359.545 336.297C360.17 336.524 360.714 336.867 361.178 337.327C361.647 337.786 362.012 338.364 362.272 339.06C362.532 339.751 362.663 340.561 362.663 341.489V342.32H353.451V340.445H359.815C359.815 340.009 359.72 339.623 359.531 339.287C359.341 338.951 359.078 338.688 358.742 338.499C358.411 338.304 358.025 338.207 357.585 338.207C357.125 338.207 356.718 338.314 356.363 338.527C356.013 338.735 355.738 339.017 355.539 339.372C355.34 339.723 355.238 340.113 355.234 340.544V342.327C355.234 342.866 355.333 343.333 355.532 343.726C355.736 344.119 356.022 344.422 356.391 344.635C356.761 344.848 357.199 344.955 357.705 344.955C358.041 344.955 358.349 344.907 358.629 344.812C358.908 344.718 359.147 344.576 359.346 344.386C359.545 344.197 359.696 343.965 359.8 343.69L362.599 343.875C362.457 344.547 362.165 345.134 361.725 345.636C361.29 346.134 360.726 346.522 360.035 346.801C359.348 347.076 358.555 347.213 357.656 347.213Z" fill="black"/>
<path d="M482.466 105H480.705C480.6 104.493 480.418 104.048 480.158 103.665C479.902 103.281 479.589 102.959 479.22 102.699C478.856 102.434 478.451 102.235 478.006 102.102C477.561 101.97 477.097 101.903 476.614 101.903C475.733 101.903 474.935 102.126 474.22 102.571C473.51 103.016 472.944 103.672 472.523 104.538C472.106 105.405 471.898 106.468 471.898 107.727C471.898 108.987 472.106 110.05 472.523 110.916C472.944 111.783 473.51 112.438 474.22 112.884C474.935 113.329 475.733 113.551 476.614 113.551C477.097 113.551 477.561 113.485 478.006 113.352C478.451 113.22 478.856 113.023 479.22 112.763C479.589 112.498 479.902 112.173 480.158 111.79C480.418 111.402 480.6 110.956 480.705 110.455H482.466C482.333 111.198 482.092 111.863 481.741 112.45C481.391 113.037 480.955 113.537 480.435 113.949C479.914 114.356 479.329 114.666 478.68 114.879C478.036 115.092 477.348 115.199 476.614 115.199C475.373 115.199 474.27 114.896 473.304 114.29C472.338 113.684 471.578 112.822 471.024 111.705C470.47 110.587 470.193 109.261 470.193 107.727C470.193 106.193 470.47 104.867 471.024 103.75C471.578 102.633 472.338 101.771 473.304 101.165C474.27 100.559 475.373 100.256 476.614 100.256C477.348 100.256 478.036 100.362 478.68 100.575C479.329 100.788 479.914 101.101 480.435 101.513C480.955 101.92 481.391 102.417 481.741 103.004C482.092 103.587 482.333 104.252 482.466 105ZM489.801 115H485.312V100.455H490C491.411 100.455 492.618 100.746 493.622 101.328C494.626 101.906 495.395 102.737 495.93 103.821C496.465 104.901 496.733 106.193 496.733 107.699C496.733 109.214 496.463 110.518 495.923 111.612C495.383 112.701 494.597 113.539 493.565 114.126C492.533 114.709 491.278 115 489.801 115ZM487.074 113.438H489.687C490.89 113.438 491.886 113.205 492.677 112.741C493.468 112.277 494.057 111.617 494.446 110.76C494.834 109.903 495.028 108.883 495.028 107.699C495.028 106.525 494.836 105.514 494.453 104.666C494.069 103.814 493.496 103.161 492.734 102.706C491.972 102.247 491.022 102.017 489.886 102.017H487.074V113.438ZM511.221 100.455V115H509.517L501.591 103.58H501.449V115H499.687V100.455H501.392L509.346 111.903H509.488V100.455H511.221ZM524.405 112.443V103.068H525.996V112.443H524.405ZM520.513 108.551V106.96H529.888V108.551H520.513ZM539.179 115V100.455H544.094C545.235 100.455 546.168 100.661 546.892 101.072C547.622 101.48 548.161 102.031 548.512 102.727C548.862 103.423 549.037 104.2 549.037 105.057C549.037 105.914 548.862 106.693 548.512 107.393C548.166 108.094 547.631 108.653 546.907 109.07C546.182 109.482 545.254 109.688 544.123 109.688H540.6V108.125H544.066C544.847 108.125 545.474 107.99 545.948 107.72C546.421 107.45 546.765 107.086 546.978 106.626C547.195 106.162 547.304 105.639 547.304 105.057C547.304 104.474 547.195 103.954 546.978 103.494C546.765 103.035 546.419 102.675 545.941 102.415C545.462 102.15 544.828 102.017 544.037 102.017H540.941V115H539.179ZM551.647 115V104.091H553.267V105.739H553.38C553.579 105.199 553.939 104.761 554.46 104.425C554.981 104.089 555.568 103.92 556.221 103.92C556.344 103.92 556.498 103.923 556.683 103.928C556.868 103.932 557.007 103.939 557.102 103.949V105.653C557.045 105.639 556.915 105.618 556.711 105.589C556.512 105.556 556.302 105.54 556.079 105.54C555.549 105.54 555.075 105.651 554.659 105.874C554.247 106.091 553.92 106.394 553.679 106.783C553.442 107.166 553.324 107.604 553.324 108.097V115H551.647ZM563.189 115.227C562.204 115.227 561.34 114.993 560.596 114.524C559.858 114.055 559.28 113.4 558.863 112.557C558.451 111.714 558.245 110.729 558.245 109.602C558.245 108.466 558.451 107.474 558.863 106.626C559.28 105.779 559.858 105.121 560.596 104.652C561.34 104.183 562.204 103.949 563.189 103.949C564.173 103.949 565.035 104.183 565.774 104.652C566.517 105.121 567.095 105.779 567.507 106.626C567.923 107.474 568.132 108.466 568.132 109.602C568.132 110.729 567.923 111.714 567.507 112.557C567.095 113.4 566.517 114.055 565.774 114.524C565.035 114.993 564.173 115.227 563.189 115.227ZM563.189 113.722C563.937 113.722 564.552 113.53 565.035 113.146C565.518 112.763 565.876 112.259 566.108 111.634C566.34 111.009 566.456 110.331 566.456 109.602C566.456 108.873 566.34 108.194 566.108 107.564C565.876 106.934 565.518 106.425 565.035 106.037C564.552 105.649 563.937 105.455 563.189 105.455C562.44 105.455 561.825 105.649 561.342 106.037C560.859 106.425 560.502 106.934 560.27 107.564C560.038 108.194 559.922 108.873 559.922 109.602C559.922 110.331 560.038 111.009 560.27 111.634C560.502 112.259 560.859 112.763 561.342 113.146C561.825 113.53 562.44 113.722 563.189 113.722ZM571.491 104.091L574.105 108.551L576.718 104.091H578.65L575.127 109.545L578.65 115H576.718L574.105 110.767L571.491 115H569.559L573.025 109.545L569.559 104.091H571.491ZM582.121 119.091C581.837 119.091 581.584 119.067 581.362 119.02C581.139 118.977 580.985 118.935 580.9 118.892L581.326 117.415C581.733 117.519 582.093 117.557 582.406 117.528C582.718 117.5 582.995 117.36 583.237 117.109C583.483 116.863 583.708 116.463 583.911 115.909L584.224 115.057L580.19 104.091H582.008L585.019 112.784H585.133L588.144 104.091H589.962L585.332 116.591C585.123 117.154 584.865 117.621 584.558 117.99C584.25 118.364 583.892 118.641 583.485 118.821C583.083 119.001 582.628 119.091 582.121 119.091Z" fill="#878787"/>
<path d="M470.761 231V216.455H475.676C476.817 216.455 477.75 216.661 478.474 217.072C479.204 217.48 479.743 218.031 480.094 218.727C480.444 219.423 480.619 220.2 480.619 221.057C480.619 221.914 480.444 222.693 480.094 223.393C479.748 224.094 479.213 224.653 478.489 225.07C477.764 225.482 476.836 225.688 475.705 225.688H472.182V224.125H475.648C476.429 224.125 477.056 223.99 477.53 223.72C478.003 223.45 478.347 223.086 478.56 222.626C478.777 222.162 478.886 221.639 478.886 221.057C478.886 220.474 478.777 219.954 478.56 219.494C478.347 219.035 478.001 218.675 477.523 218.415C477.045 218.15 476.41 218.017 475.619 218.017H472.523V231H470.761ZM486.44 231.256C485.748 231.256 485.121 231.125 484.558 230.865C483.994 230.6 483.547 230.219 483.215 229.722C482.884 229.22 482.718 228.614 482.718 227.903C482.718 227.278 482.841 226.772 483.087 226.384C483.334 225.991 483.663 225.683 484.075 225.46C484.487 225.238 484.941 225.072 485.438 224.963C485.94 224.849 486.444 224.759 486.951 224.693C487.614 224.608 488.151 224.544 488.563 224.501C488.98 224.454 489.283 224.376 489.472 224.267C489.666 224.158 489.763 223.969 489.763 223.699V223.642C489.763 222.941 489.572 222.397 489.188 222.009C488.809 221.62 488.234 221.426 487.462 221.426C486.662 221.426 486.035 221.601 485.58 221.952C485.126 222.302 484.806 222.676 484.621 223.074L483.031 222.506C483.315 221.843 483.693 221.327 484.167 220.957C484.645 220.583 485.166 220.323 485.729 220.176C486.298 220.025 486.856 219.949 487.406 219.949C487.756 219.949 488.158 219.991 488.613 220.077C489.072 220.157 489.515 220.325 489.941 220.581C490.372 220.837 490.729 221.223 491.013 221.739C491.298 222.255 491.44 222.946 491.44 223.812V231H489.763V229.523H489.678C489.565 229.759 489.375 230.013 489.11 230.283C488.845 230.553 488.492 230.782 488.052 230.972C487.612 231.161 487.074 231.256 486.44 231.256ZM486.695 229.75C487.358 229.75 487.917 229.62 488.371 229.359C488.831 229.099 489.176 228.763 489.408 228.351C489.645 227.939 489.763 227.506 489.763 227.051V225.517C489.692 225.602 489.536 225.68 489.295 225.751C489.058 225.818 488.783 225.877 488.471 225.929C488.163 225.976 487.862 226.019 487.569 226.057C487.28 226.09 487.046 226.118 486.866 226.142C486.43 226.199 486.023 226.291 485.644 226.419C485.27 226.542 484.967 226.729 484.735 226.98C484.508 227.226 484.394 227.562 484.394 227.989C484.394 228.571 484.61 229.011 485.04 229.31C485.476 229.603 486.028 229.75 486.695 229.75ZM497.709 231.256C497.018 231.256 496.391 231.125 495.827 230.865C495.264 230.6 494.816 230.219 494.485 229.722C494.153 229.22 493.988 228.614 493.988 227.903C493.988 227.278 494.111 226.772 494.357 226.384C494.603 225.991 494.932 225.683 495.344 225.46C495.756 225.238 496.211 225.072 496.708 224.963C497.21 224.849 497.714 224.759 498.221 224.693C498.883 224.608 499.421 224.544 499.833 224.501C500.249 224.454 500.552 224.376 500.742 224.267C500.936 224.158 501.033 223.969 501.033 223.699V223.642C501.033 222.941 500.841 222.397 500.458 222.009C500.079 221.62 499.504 221.426 498.732 221.426C497.932 221.426 497.304 221.601 496.85 221.952C496.395 222.302 496.076 222.676 495.891 223.074L494.3 222.506C494.584 221.843 494.963 221.327 495.436 220.957C495.915 220.583 496.435 220.323 496.999 220.176C497.567 220.025 498.126 219.949 498.675 219.949C499.025 219.949 499.428 219.991 499.882 220.077C500.342 220.157 500.784 220.325 501.211 220.581C501.641 220.837 501.999 221.223 502.283 221.739C502.567 222.255 502.709 222.946 502.709 223.812V231H501.033V229.523H500.948C500.834 229.759 500.645 230.013 500.38 230.283C500.114 230.553 499.762 230.782 499.321 230.972C498.881 231.161 498.344 231.256 497.709 231.256ZM497.965 229.75C498.628 229.75 499.186 229.62 499.641 229.359C500.1 229.099 500.446 228.763 500.678 228.351C500.915 227.939 501.033 227.506 501.033 227.051V225.517C500.962 225.602 500.806 225.68 500.564 225.751C500.328 225.818 500.053 225.877 499.74 225.929C499.433 225.976 499.132 226.019 498.838 226.057C498.55 226.09 498.315 226.118 498.135 226.142C497.7 226.199 497.292 226.291 496.914 226.419C496.54 226.542 496.237 226.729 496.005 226.98C495.777 227.226 495.664 227.562 495.664 227.989C495.664 228.571 495.879 229.011 496.31 229.31C496.746 229.603 497.297 229.75 497.965 229.75ZM513.95 220.091C513.865 219.371 513.519 218.812 512.913 218.415C512.307 218.017 511.564 217.818 510.683 217.818C510.039 217.818 509.476 217.922 508.993 218.131C508.515 218.339 508.141 218.625 507.871 218.99C507.606 219.355 507.473 219.769 507.473 220.233C507.473 220.621 507.565 220.955 507.75 221.234C507.939 221.509 508.181 221.739 508.474 221.923C508.768 222.103 509.076 222.252 509.398 222.371C509.72 222.484 510.016 222.577 510.286 222.648L511.763 223.045C512.142 223.145 512.563 223.282 513.027 223.457C513.496 223.633 513.943 223.872 514.369 224.175C514.8 224.473 515.155 224.857 515.435 225.325C515.714 225.794 515.854 226.369 515.854 227.051C515.854 227.837 515.648 228.547 515.236 229.182C514.829 229.816 514.232 230.321 513.446 230.695C512.665 231.069 511.715 231.256 510.598 231.256C509.556 231.256 508.654 231.088 507.892 230.751C507.134 230.415 506.538 229.946 506.102 229.345C505.671 228.744 505.428 228.045 505.371 227.25H507.189C507.236 227.799 507.421 228.254 507.743 228.614C508.07 228.969 508.482 229.234 508.979 229.409C509.481 229.58 510.02 229.665 510.598 229.665C511.27 229.665 511.874 229.556 512.409 229.338C512.944 229.116 513.368 228.808 513.68 228.415C513.993 228.017 514.149 227.553 514.149 227.023C514.149 226.54 514.014 226.147 513.744 225.844C513.474 225.541 513.119 225.295 512.679 225.105C512.239 224.916 511.763 224.75 511.251 224.608L509.462 224.097C508.325 223.77 507.426 223.304 506.763 222.697C506.1 222.091 505.768 221.298 505.768 220.318C505.768 219.504 505.989 218.794 506.429 218.188C506.874 217.577 507.471 217.103 508.219 216.767C508.972 216.426 509.812 216.256 510.74 216.256C511.678 216.256 512.511 216.424 513.24 216.76C513.969 217.091 514.547 217.546 514.973 218.124C515.404 218.701 515.631 219.357 515.655 220.091H513.95Z" fill="#878787"/>
<path d="M277.264 31V16.4545H283.003C284.101 16.4545 285.039 16.651 285.815 17.044C286.597 17.4323 287.191 17.9839 287.598 18.6989C288.01 19.4091 288.216 20.2448 288.216 21.206C288.216 22.1719 288.008 23.0028 287.591 23.6989C287.174 24.3902 286.571 24.9205 285.78 25.2898C284.994 25.6591 284.042 25.8438 282.925 25.8438H279.082V23.3722H282.428C283.015 23.3722 283.502 23.2917 283.891 23.1307C284.279 22.9697 284.568 22.7282 284.757 22.4062C284.951 22.0843 285.048 21.6842 285.048 21.206C285.048 20.723 284.951 20.3158 284.757 19.9844C284.568 19.6529 284.277 19.402 283.884 19.2315C283.495 19.0563 283.005 18.9688 282.413 18.9688H280.339V31H277.264ZM285.119 24.3807L288.734 31H285.339L281.803 24.3807H285.119ZM295.128 31.2131C294.006 31.2131 293.04 30.9858 292.23 30.5312C291.426 30.072 290.805 29.4233 290.37 28.5852C289.934 27.7424 289.716 26.7457 289.716 25.5952C289.716 24.473 289.934 23.4882 290.37 22.6406C290.805 21.7931 291.418 21.1326 292.209 20.6591C293.005 20.1856 293.937 19.9489 295.007 19.9489C295.727 19.9489 296.397 20.0649 297.017 20.2969C297.642 20.5241 298.187 20.8674 298.651 21.3267C299.12 21.786 299.484 22.3636 299.745 23.0597C300.005 23.7509 300.135 24.5606 300.135 25.4886V26.3196H290.924V24.4446H297.287C297.287 24.009 297.193 23.6231 297.003 23.2869C296.814 22.9508 296.551 22.688 296.215 22.4986C295.883 22.3045 295.498 22.2074 295.057 22.2074C294.598 22.2074 294.191 22.3139 293.836 22.527C293.485 22.7353 293.211 23.017 293.012 23.3722C292.813 23.7225 292.711 24.1132 292.706 24.544V26.3267C292.706 26.8665 292.806 27.3329 293.005 27.7259C293.208 28.1188 293.495 28.4219 293.864 28.6349C294.233 28.848 294.671 28.9545 295.178 28.9545C295.514 28.9545 295.822 28.9072 296.101 28.8125C296.381 28.7178 296.62 28.5758 296.819 28.3864C297.017 28.197 297.169 27.965 297.273 27.6903L300.071 27.875C299.929 28.5473 299.638 29.1345 299.198 29.6364C298.762 30.1335 298.199 30.5218 297.507 30.8011C296.821 31.0758 296.028 31.2131 295.128 31.2131ZM309.319 35.0909V29.2528H309.226C309.084 29.5559 308.883 29.8565 308.623 30.1548C308.367 30.4484 308.033 30.6922 307.621 30.8864C307.214 31.0805 306.717 31.1776 306.13 31.1776C305.301 31.1776 304.551 30.9645 303.878 30.5384C303.211 30.1075 302.68 29.4754 302.287 28.642C301.899 27.804 301.705 26.7765 301.705 25.5597C301.705 24.3097 301.906 23.2704 302.309 22.4418C302.711 21.6084 303.246 20.9858 303.914 20.5739C304.586 20.1572 305.322 19.9489 306.123 19.9489C306.733 19.9489 307.242 20.053 307.65 20.2614C308.061 20.465 308.393 20.7206 308.644 21.0284C308.9 21.3314 309.094 21.6297 309.226 21.9233H309.354V20.0909H312.337V35.0909H309.319ZM307.088 28.7699C307.576 28.7699 307.988 28.6373 308.324 28.3722C308.665 28.1023 308.926 27.7259 309.105 27.2429C309.29 26.7599 309.382 26.1941 309.382 25.5455C309.382 24.8968 309.292 24.3333 309.113 23.8551C308.933 23.3769 308.672 23.0076 308.331 22.7472C307.99 22.4867 307.576 22.3565 307.088 22.3565C306.591 22.3565 306.172 22.4915 305.831 22.7614C305.49 23.0312 305.232 23.4053 305.057 23.8835C304.882 24.3617 304.794 24.9157 304.794 25.5455C304.794 26.1799 304.882 26.741 305.057 27.2287C305.237 27.7116 305.495 28.0904 305.831 28.3651C306.172 28.6349 306.591 28.7699 307.088 28.7699ZM321.762 26.3551V20.0909H324.787V31H321.882V29.0185H321.769C321.523 29.6577 321.113 30.1714 320.54 30.5597C319.972 30.9479 319.278 31.142 318.459 31.142C317.73 31.142 317.088 30.9763 316.534 30.6449C315.98 30.3134 315.547 29.8423 315.235 29.2315C314.927 28.6207 314.771 27.8892 314.766 27.0369V20.0909H317.792V26.4972C317.796 27.1411 317.969 27.6501 318.31 28.0241C318.651 28.3982 319.108 28.5852 319.681 28.5852C320.045 28.5852 320.386 28.5024 320.703 28.3366C321.021 28.1662 321.276 27.9152 321.471 27.5838C321.669 27.2524 321.766 26.8428 321.762 26.3551ZM332.179 31.2131C331.057 31.2131 330.091 30.9858 329.281 30.5312C328.476 30.072 327.856 29.4233 327.42 28.5852C326.985 27.7424 326.767 26.7457 326.767 25.5952C326.767 24.473 326.985 23.4882 327.42 22.6406C327.856 21.7931 328.469 21.1326 329.26 20.6591C330.055 20.1856 330.988 19.9489 332.058 19.9489C332.778 19.9489 333.448 20.0649 334.068 20.2969C334.693 20.5241 335.238 20.8674 335.702 21.3267C336.17 21.786 336.535 22.3636 336.795 23.0597C337.056 23.7509 337.186 24.5606 337.186 25.4886V26.3196H327.974V24.4446H334.338C334.338 24.009 334.243 23.6231 334.054 23.2869C333.865 22.9508 333.602 22.688 333.266 22.4986C332.934 22.3045 332.548 22.2074 332.108 22.2074C331.649 22.2074 331.241 22.3139 330.886 22.527C330.536 22.7353 330.261 23.017 330.062 23.3722C329.864 23.7225 329.762 24.1132 329.757 24.544V26.3267C329.757 26.8665 329.857 27.3329 330.055 27.7259C330.259 28.1188 330.545 28.4219 330.915 28.6349C331.284 28.848 331.722 28.9545 332.229 28.9545C332.565 28.9545 332.873 28.9072 333.152 28.8125C333.431 28.7178 333.67 28.5758 333.869 28.3864C334.068 28.197 334.22 27.965 334.324 27.6903L337.122 27.875C336.98 28.5473 336.689 29.1345 336.249 29.6364C335.813 30.1335 335.25 30.5218 334.558 30.8011C333.872 31.0758 333.079 31.2131 332.179 31.2131ZM348.237 23.2017L345.467 23.3722C345.42 23.1354 345.318 22.9223 345.162 22.733C345.006 22.5388 344.8 22.3849 344.544 22.2713C344.293 22.1529 343.992 22.0938 343.642 22.0938C343.173 22.0938 342.778 22.1932 342.456 22.392C342.134 22.5862 341.973 22.8466 341.973 23.1733C341.973 23.4337 342.077 23.6539 342.286 23.8338C342.494 24.0137 342.851 24.1581 343.358 24.267L345.332 24.6648C346.393 24.8826 347.184 25.233 347.705 25.7159C348.225 26.1989 348.486 26.8333 348.486 27.6193C348.486 28.3343 348.275 28.9616 347.854 29.5014C347.437 30.0412 346.864 30.4626 346.135 30.7656C345.411 31.0639 344.575 31.2131 343.628 31.2131C342.184 31.2131 341.033 30.9124 340.176 30.3111C339.324 29.705 338.824 28.8812 338.678 27.8395L341.653 27.6832C341.743 28.1236 341.961 28.4598 342.307 28.6918C342.652 28.919 343.095 29.0327 343.635 29.0327C344.165 29.0327 344.591 28.9309 344.913 28.7273C345.24 28.5189 345.406 28.2514 345.411 27.9247C345.406 27.6501 345.29 27.4252 345.062 27.25C344.835 27.0701 344.485 26.9328 344.011 26.8381L342.122 26.4616C341.057 26.2486 340.264 25.8793 339.743 25.3537C339.227 24.8281 338.969 24.1581 338.969 23.3438C338.969 22.643 339.158 22.0393 339.537 21.5327C339.92 21.026 340.458 20.6354 341.149 20.3608C341.845 20.0862 342.66 19.9489 343.592 19.9489C344.97 19.9489 346.054 20.2401 346.845 20.8224C347.641 21.4048 348.105 22.1979 348.237 23.2017ZM356.194 20.0909V22.3636H349.624V20.0909H356.194ZM351.115 17.4773H354.141V27.6477C354.141 27.9271 354.184 28.1449 354.269 28.3011C354.354 28.4527 354.472 28.5592 354.624 28.6207C354.78 28.6823 354.96 28.7131 355.164 28.7131C355.306 28.7131 355.448 28.7012 355.59 28.6776C355.732 28.6491 355.841 28.6278 355.917 28.6136L356.392 30.8651C356.241 30.9124 356.028 30.9669 355.753 31.0284C355.479 31.0947 355.145 31.1349 354.752 31.1491C354.023 31.1776 353.383 31.0805 352.834 30.858C352.29 30.6354 351.866 30.2898 351.563 29.821C351.26 29.3523 351.111 28.7604 351.115 28.0455V17.4773Z" fill="black"/>
<path d="M475.25 347H470.761V332.455H475.449C476.86 332.455 478.067 332.746 479.071 333.328C480.075 333.906 480.844 334.737 481.379 335.821C481.914 336.901 482.182 338.193 482.182 339.699C482.182 341.214 481.912 342.518 481.372 343.612C480.832 344.701 480.046 345.539 479.014 346.126C477.982 346.709 476.727 347 475.25 347ZM472.523 345.438H475.136C476.339 345.438 477.336 345.205 478.126 344.741C478.917 344.277 479.507 343.617 479.895 342.76C480.283 341.903 480.477 340.883 480.477 339.699C480.477 338.525 480.286 337.514 479.902 336.666C479.518 335.814 478.946 335.161 478.183 334.706C477.421 334.247 476.472 334.017 475.335 334.017H472.523V345.438ZM488.119 347.256C487.428 347.256 486.801 347.125 486.237 346.865C485.674 346.6 485.226 346.219 484.895 345.722C484.563 345.22 484.398 344.614 484.398 343.903C484.398 343.278 484.521 342.772 484.767 342.384C485.013 341.991 485.342 341.683 485.754 341.46C486.166 341.238 486.621 341.072 487.118 340.963C487.62 340.849 488.124 340.759 488.631 340.693C489.294 340.608 489.831 340.544 490.243 340.501C490.66 340.454 490.963 340.376 491.152 340.267C491.346 340.158 491.443 339.969 491.443 339.699V339.642C491.443 338.941 491.251 338.397 490.868 338.009C490.489 337.62 489.914 337.426 489.142 337.426C488.342 337.426 487.714 337.601 487.26 337.952C486.805 338.302 486.486 338.676 486.301 339.074L484.71 338.506C484.994 337.843 485.373 337.327 485.847 336.957C486.325 336.583 486.846 336.323 487.409 336.176C487.977 336.025 488.536 335.949 489.085 335.949C489.436 335.949 489.838 335.991 490.293 336.077C490.752 336.157 491.195 336.325 491.621 336.581C492.052 336.837 492.409 337.223 492.693 337.739C492.977 338.255 493.119 338.946 493.119 339.812V347H491.443V345.523H491.358C491.244 345.759 491.055 346.013 490.79 346.283C490.525 346.553 490.172 346.782 489.732 346.972C489.291 347.161 488.754 347.256 488.119 347.256ZM488.375 345.75C489.038 345.75 489.597 345.62 490.051 345.359C490.51 345.099 490.856 344.763 491.088 344.351C491.325 343.939 491.443 343.506 491.443 343.051V341.517C491.372 341.602 491.216 341.68 490.974 341.751C490.738 341.818 490.463 341.877 490.151 341.929C489.843 341.976 489.542 342.019 489.249 342.057C488.96 342.09 488.725 342.118 488.545 342.142C488.11 342.199 487.703 342.291 487.324 342.419C486.95 342.542 486.647 342.729 486.415 342.98C486.188 343.226 486.074 343.562 486.074 343.989C486.074 344.571 486.289 345.011 486.72 345.31C487.156 345.603 487.707 345.75 488.375 345.75ZM500.923 336.091V337.511H495.27V336.091H500.923ZM496.917 333.477H498.593V343.875C498.593 344.348 498.662 344.704 498.799 344.94C498.941 345.172 499.121 345.329 499.339 345.409C499.562 345.485 499.796 345.523 500.042 345.523C500.227 345.523 500.378 345.513 500.497 345.494C500.615 345.471 500.71 345.452 500.781 345.438L501.122 346.943C501.008 346.986 500.85 347.028 500.646 347.071C500.442 347.118 500.184 347.142 499.872 347.142C499.398 347.142 498.934 347.04 498.48 346.837C498.03 346.633 497.656 346.323 497.358 345.906C497.064 345.49 496.917 344.964 496.917 344.33V333.477ZM506.654 347.256C505.963 347.256 505.336 347.125 504.772 346.865C504.209 346.6 503.761 346.219 503.43 345.722C503.099 345.22 502.933 344.614 502.933 343.903C502.933 343.278 503.056 342.772 503.302 342.384C503.548 341.991 503.877 341.683 504.289 341.46C504.701 341.238 505.156 341.072 505.653 340.963C506.155 340.849 506.659 340.759 507.166 340.693C507.829 340.608 508.366 340.544 508.778 340.501C509.195 340.454 509.498 340.376 509.687 340.267C509.881 340.158 509.978 339.969 509.978 339.699V339.642C509.978 338.941 509.787 338.397 509.403 338.009C509.024 337.62 508.449 337.426 507.677 337.426C506.877 337.426 506.25 337.601 505.795 337.952C505.341 338.302 505.021 338.676 504.836 339.074L503.245 338.506C503.529 337.843 503.908 337.327 504.382 336.957C504.86 336.583 505.381 336.323 505.944 336.176C506.512 336.025 507.071 335.949 507.62 335.949C507.971 335.949 508.373 335.991 508.828 336.077C509.287 336.157 509.73 336.325 510.156 336.581C510.587 336.837 510.944 337.223 511.228 337.739C511.512 338.255 511.654 338.946 511.654 339.812V347H509.978V345.523H509.893C509.779 345.759 509.59 346.013 509.325 346.283C509.06 346.553 508.707 346.782 508.267 346.972C507.826 347.161 507.289 347.256 506.654 347.256ZM506.91 345.75C507.573 345.75 508.132 345.62 508.586 345.359C509.046 345.099 509.391 344.763 509.623 344.351C509.86 343.939 509.978 343.506 509.978 343.051V341.517C509.907 341.602 509.751 341.68 509.51 341.751C509.273 341.818 508.998 341.877 508.686 341.929C508.378 341.976 508.077 342.019 507.784 342.057C507.495 342.09 507.261 342.118 507.081 342.142C506.645 342.199 506.238 342.291 505.859 342.419C505.485 342.542 505.182 342.729 504.95 342.98C504.723 343.226 504.609 343.562 504.609 343.989C504.609 344.571 504.824 345.011 505.255 345.31C505.691 345.603 506.243 345.75 506.91 345.75ZM514.941 347V332.455H516.617V337.824H516.759C516.882 337.634 517.053 337.393 517.271 337.099C517.493 336.801 517.81 336.536 518.222 336.304C518.639 336.067 519.202 335.949 519.913 335.949C520.831 335.949 521.641 336.179 522.342 336.638C523.042 337.097 523.589 337.748 523.982 338.591C524.375 339.434 524.572 340.428 524.572 341.574C524.572 342.729 524.375 343.731 523.982 344.578C523.589 345.421 523.045 346.074 522.349 346.538C521.653 346.998 520.85 347.227 519.941 347.227C519.24 347.227 518.679 347.111 518.258 346.879C517.836 346.643 517.512 346.375 517.285 346.077C517.058 345.774 516.882 345.523 516.759 345.324H516.56V347H514.941ZM516.589 341.545C516.589 342.369 516.71 343.096 516.951 343.726C517.192 344.351 517.545 344.841 518.009 345.196C518.473 345.546 519.041 345.722 519.714 345.722C520.415 345.722 520.999 345.537 521.468 345.168C521.942 344.794 522.297 344.292 522.533 343.662C522.775 343.027 522.896 342.322 522.896 341.545C522.896 340.778 522.777 340.087 522.54 339.472C522.308 338.851 521.956 338.361 521.482 338.001C521.013 337.637 520.424 337.455 519.714 337.455C519.032 337.455 518.459 337.627 517.995 337.973C517.531 338.314 517.181 338.792 516.944 339.408C516.707 340.018 516.589 340.731 516.589 341.545ZM530.346 347.256C529.655 347.256 529.027 347.125 528.464 346.865C527.9 346.6 527.453 346.219 527.121 345.722C526.79 345.22 526.624 344.614 526.624 343.903C526.624 343.278 526.747 342.772 526.994 342.384C527.24 341.991 527.569 341.683 527.981 341.46C528.393 341.238 528.847 341.072 529.344 340.963C529.846 340.849 530.351 340.759 530.857 340.693C531.52 340.608 532.058 340.544 532.469 340.501C532.886 340.454 533.189 340.376 533.379 340.267C533.573 340.158 533.67 339.969 533.67 339.699V339.642C533.67 338.941 533.478 338.397 533.094 338.009C532.716 337.62 532.14 337.426 531.369 337.426C530.568 337.426 529.941 337.601 529.487 337.952C529.032 338.302 528.712 338.676 528.528 339.074L526.937 338.506C527.221 337.843 527.6 337.327 528.073 336.957C528.551 336.583 529.072 336.323 529.636 336.176C530.204 336.025 530.763 335.949 531.312 335.949C531.662 335.949 532.065 335.991 532.519 336.077C532.978 336.157 533.421 336.325 533.847 336.581C534.278 336.837 534.636 337.223 534.92 337.739C535.204 338.255 535.346 338.946 535.346 339.812V347H533.67V345.523H533.585C533.471 345.759 533.281 346.013 533.016 346.283C532.751 346.553 532.398 346.782 531.958 346.972C531.518 347.161 530.98 347.256 530.346 347.256ZM530.602 345.75C531.264 345.75 531.823 345.62 532.278 345.359C532.737 345.099 533.083 344.763 533.315 344.351C533.551 343.939 533.67 343.506 533.67 343.051V341.517C533.599 341.602 533.442 341.68 533.201 341.751C532.964 341.818 532.69 341.877 532.377 341.929C532.069 341.976 531.769 342.019 531.475 342.057C531.186 342.09 530.952 342.118 530.772 342.142C530.336 342.199 529.929 342.291 529.55 342.419C529.176 342.542 528.873 342.729 528.641 342.98C528.414 343.226 528.3 343.562 528.3 343.989C528.3 344.571 528.516 345.011 528.947 345.31C529.382 345.603 529.934 345.75 530.602 345.75ZM546.132 338.534L544.627 338.96C544.532 338.709 544.392 338.465 544.208 338.229C544.028 337.987 543.782 337.788 543.469 337.632C543.157 337.476 542.757 337.398 542.269 337.398C541.601 337.398 541.045 337.552 540.6 337.859C540.159 338.162 539.939 338.548 539.939 339.017C539.939 339.434 540.091 339.763 540.394 340.004C540.697 340.246 541.17 340.447 541.814 340.608L543.434 341.006C544.409 341.242 545.136 341.605 545.614 342.092C546.092 342.575 546.331 343.198 546.331 343.96C546.331 344.585 546.151 345.144 545.792 345.636C545.436 346.129 544.939 346.517 544.3 346.801C543.661 347.085 542.917 347.227 542.07 347.227C540.957 347.227 540.036 346.986 539.307 346.503C538.578 346.02 538.116 345.314 537.922 344.386L539.513 343.989C539.665 344.576 539.951 345.016 540.373 345.31C540.799 345.603 541.355 345.75 542.042 345.75C542.823 345.75 543.443 345.584 543.902 345.253C544.366 344.917 544.598 344.514 544.598 344.045C544.598 343.667 544.466 343.349 544.201 343.094C543.935 342.833 543.528 342.639 542.979 342.511L541.161 342.085C540.162 341.848 539.428 341.482 538.959 340.984C538.495 340.482 538.263 339.855 538.263 339.102C538.263 338.487 538.436 337.942 538.782 337.469C539.132 336.995 539.608 336.624 540.209 336.354C540.815 336.084 541.502 335.949 542.269 335.949C543.348 335.949 544.196 336.186 544.811 336.659C545.432 337.133 545.872 337.758 546.132 338.534ZM553.428 347.227C552.377 347.227 551.47 346.995 550.708 346.531C549.951 346.062 549.366 345.409 548.954 344.571C548.547 343.728 548.343 342.748 548.343 341.631C548.343 340.513 548.547 339.528 548.954 338.676C549.366 337.819 549.939 337.152 550.673 336.673C551.411 336.19 552.273 335.949 553.258 335.949C553.826 335.949 554.387 336.044 554.941 336.233C555.495 336.422 555.999 336.73 556.454 337.156C556.908 337.578 557.271 338.136 557.54 338.832C557.81 339.528 557.945 340.385 557.945 341.403V342.114H549.536V340.665H556.241C556.241 340.049 556.118 339.5 555.871 339.017C555.63 338.534 555.284 338.153 554.835 337.874C554.389 337.594 553.864 337.455 553.258 337.455C552.59 337.455 552.013 337.62 551.525 337.952C551.042 338.278 550.67 338.705 550.41 339.23C550.149 339.756 550.019 340.319 550.019 340.92V341.886C550.019 342.71 550.161 343.409 550.445 343.982C550.734 344.55 551.134 344.983 551.646 345.281C552.157 345.575 552.751 345.722 553.428 345.722C553.869 345.722 554.266 345.66 554.621 345.537C554.981 345.409 555.291 345.22 555.552 344.969C555.812 344.713 556.013 344.396 556.156 344.017L557.775 344.472C557.604 345.021 557.318 345.504 556.915 345.92C556.513 346.332 556.016 346.654 555.424 346.886C554.832 347.114 554.167 347.227 553.428 347.227Z" fill="#878787"/>
<path d="M315.293 186.707C315.683 187.098 316.317 187.098 316.707 186.707L323.071 180.343C323.462 179.953 323.462 179.319 323.071 178.929C322.681 178.538 322.047 178.538 321.657 178.929L316 184.586L310.343 178.929C309.953 178.538 309.319 178.538 308.929 178.929C308.538 179.319 308.538 179.953 308.929 180.343L315.293 186.707ZM315 136L315 186L317 186L317 136L315 136Z" fill="black"/>
<path d="M315.293 78.7071C315.683 79.0976 316.317 79.0976 316.707 78.7071L323.071 72.3431C323.462 71.9526 323.462 71.3195 323.071 70.9289C322.681 70.5384 322.047 70.5384 321.657 70.9289L316 76.5858L310.343 70.9289C309.953 70.5384 309.319 70.5384 308.929 70.9289C308.538 71.3195 308.538 71.9526 308.929 72.3431L315.293 78.7071ZM315 43L315 78L317 78L317 43L315 43Z" fill="black"/>
<path d="M315.293 310.707C315.683 311.098 316.317 311.098 316.707 310.707L323.071 304.343C323.462 303.953 323.462 303.319 323.071 302.929C322.681 302.538 322.047 302.538 321.657 302.929L316 308.586L310.343 302.929C309.953 302.538 309.319 302.538 308.929 302.929C308.538 303.319 308.538 303.953 308.929 304.343L315.293 310.707ZM315 268L315 310L317 310L317 268L315 268Z" fill="black"/>
<path d="M144.072 226.194C143.888 213.104 133.182 202.513 120.049 202.513C117.086 202.513 114.147 203.065 111.397 204.126C109.282 197.71 105.319 191.952 100.02 187.668C93.7623 182.609 85.8762 179.823 77.8142 179.823C58.8361 179.823 43.3029 194.858 42.5008 213.643C36.4608 215.432 31.0233 219.048 27.0193 223.976C22.4929 229.548 20 236.576 20 243.767C20 261.087 34.0901 275.177 51.4098 275.177H133.333C147.486 275.177 159 263.663 159 249.509C159 239.486 153.076 230.351 144.072 226.194ZM133.333 269.784H51.4098C37.0641 269.784 25.3929 258.113 25.3929 243.767C25.3929 237.811 27.4569 231.99 31.2053 227.377C34.9019 222.827 40.0693 219.628 45.7552 218.368C47.0067 218.091 47.8897 216.972 47.8681 215.691L47.8667 215.602C47.8641 215.458 47.8613 215.314 47.8613 215.169C47.8613 198.653 61.2981 185.216 77.8142 185.216C84.7451 185.216 91.2514 187.514 96.6295 191.862C101.856 196.088 105.548 202.001 107.025 208.514C107.213 209.343 107.781 210.035 108.558 210.381C109.336 210.727 110.23 210.686 110.972 210.27C113.735 208.723 116.874 207.906 120.049 207.906C130.323 207.906 138.682 216.265 138.682 226.539C138.682 226.912 138.667 227.31 138.635 227.791C138.555 228.981 139.268 230.083 140.387 230.498C148.294 233.434 153.607 241.074 153.607 249.51C153.607 260.689 144.512 269.784 133.333 269.784Z" fill="black"/>
<path d="M74.9721 224.029C74.9721 225.457 74.7015 226.671 74.1603 227.673C73.6234 228.674 72.8904 229.439 71.9614 229.967C71.0367 230.491 69.997 230.754 68.8421 230.754C67.6788 230.754 66.6347 230.489 65.71 229.961C64.7853 229.433 64.0545 228.668 63.5176 227.666C62.9806 226.665 62.7122 225.452 62.7122 224.029C62.7122 222.602 62.9806 221.387 63.5176 220.386C64.0545 219.384 64.7853 218.621 65.71 218.097C66.6347 217.569 67.6788 217.305 68.8421 217.305C69.997 217.305 71.0367 217.569 71.9614 218.097C72.8904 218.621 73.6234 219.384 74.1603 220.386C74.7015 221.387 74.9721 222.602 74.9721 224.029ZM72.166 224.029C72.166 223.104 72.0275 222.325 71.7505 221.69C71.4778 221.055 71.0921 220.573 70.5935 220.245C70.095 219.917 69.5112 219.753 68.8421 219.753C68.1731 219.753 67.5893 219.917 67.0907 220.245C66.5921 220.573 66.2043 221.055 65.9274 221.69C65.6546 222.325 65.5183 223.104 65.5183 224.029C65.5183 224.954 65.6546 225.734 65.9274 226.369C66.2043 227.004 66.5921 227.485 67.0907 227.813C67.5893 228.141 68.1731 228.305 68.8421 228.305C69.5112 228.305 70.095 228.141 70.5935 227.813C71.0921 227.485 71.4778 227.004 71.7505 226.369C72.0275 225.734 72.166 224.954 72.166 224.029ZM79.6942 224.898V230.575H76.9712V220.756H79.5664V222.489H79.6814C79.8988 221.918 80.2631 221.466 80.7745 221.134C81.2858 220.797 81.9059 220.629 82.6346 220.629C83.3164 220.629 83.9108 220.778 84.4179 221.076C84.925 221.374 85.3192 221.8 85.6005 222.354C85.8817 222.904 86.0223 223.56 86.0223 224.323V230.575H83.2993V224.809C83.3036 224.208 83.1502 223.739 82.8391 223.403C82.528 223.062 82.0998 222.891 81.5543 222.891C81.1878 222.891 80.864 222.97 80.5827 223.128C80.3057 223.286 80.0884 223.516 79.9307 223.818C79.7773 224.116 79.6985 224.477 79.6942 224.898ZM90.8915 217.484V230.575H88.1685V217.484H90.8915ZM93.0728 230.575V220.756H95.7958V230.575H93.0728ZM94.4407 219.491C94.0358 219.491 93.6885 219.357 93.3988 219.088C93.1133 218.815 92.9705 218.489 92.9705 218.11C92.9705 217.735 93.1133 217.413 93.3988 217.145C93.6885 216.872 94.0358 216.736 94.4407 216.736C94.8455 216.736 95.1907 216.872 95.4762 217.145C95.766 217.413 95.9108 217.735 95.9108 218.11C95.9108 218.489 95.766 218.815 95.4762 219.088C95.1907 219.357 94.8455 219.491 94.4407 219.491ZM100.7 224.898V230.575H97.9771V220.756H100.572V222.489H100.687C100.905 221.918 101.269 221.466 101.78 221.134C102.292 220.797 102.912 220.629 103.64 220.629C104.322 220.629 104.917 220.778 105.424 221.076C105.931 221.374 106.325 221.8 106.606 222.354C106.888 222.904 107.028 223.56 107.028 224.323V230.575H104.305V224.809C104.309 224.208 104.156 223.739 103.845 223.403C103.534 223.062 103.106 222.891 102.56 222.891C102.194 222.891 101.87 222.97 101.589 223.128C101.312 223.286 101.094 223.516 100.937 223.818C100.783 224.116 100.704 224.477 100.7 224.898ZM113.649 230.766C112.639 230.766 111.77 230.562 111.041 230.153C110.316 229.739 109.758 229.156 109.366 228.401C108.974 227.643 108.778 226.746 108.778 225.71C108.778 224.7 108.974 223.814 109.366 223.051C109.758 222.288 110.31 221.694 111.022 221.268C111.738 220.842 112.577 220.629 113.54 220.629C114.188 220.629 114.791 220.733 115.349 220.942C115.912 221.146 116.402 221.455 116.819 221.869C117.241 222.282 117.569 222.802 117.804 223.428C118.038 224.05 118.155 224.779 118.155 225.614V226.362H109.865V224.675H115.592C115.592 224.283 115.507 223.935 115.336 223.633C115.166 223.33 114.929 223.094 114.627 222.923C114.328 222.749 113.981 222.661 113.585 222.661C113.171 222.661 112.805 222.757 112.485 222.949C112.17 223.136 111.923 223.39 111.744 223.71C111.565 224.025 111.473 224.376 111.469 224.764V226.369C111.469 226.854 111.559 227.274 111.738 227.628C111.921 227.982 112.179 228.254 112.511 228.446C112.843 228.638 113.238 228.734 113.694 228.734C113.996 228.734 114.273 228.691 114.524 228.606C114.776 228.521 114.991 228.393 115.17 228.222C115.349 228.052 115.485 227.843 115.579 227.596L118.098 227.762C117.97 228.367 117.708 228.896 117.311 229.347C116.919 229.795 116.412 230.144 115.79 230.396C115.172 230.643 114.458 230.766 113.649 230.766ZM60.0155 243.249C59.9644 242.733 59.7449 242.332 59.3571 242.047C58.9693 241.761 58.4431 241.619 57.7783 241.619C57.3266 241.619 56.9452 241.683 56.6341 241.81C56.323 241.934 56.0844 242.107 55.9182 242.328C55.7563 242.55 55.6753 242.801 55.6753 243.082C55.6668 243.317 55.7158 243.521 55.8223 243.696C55.9331 243.871 56.0844 244.022 56.2762 244.15C56.4679 244.273 56.6895 244.382 56.9409 244.476C57.1924 244.565 57.4608 244.642 57.7463 244.706L58.9225 244.987C59.4935 245.115 60.0176 245.286 60.4949 245.499C60.9722 245.712 61.3855 245.974 61.735 246.285C62.0844 246.596 62.355 246.962 62.5468 247.384C62.7428 247.806 62.8429 248.29 62.8472 248.835C62.8429 249.636 62.6384 250.331 62.2336 250.919C61.833 251.503 61.2534 251.957 60.4949 252.281C59.7407 252.6 58.8309 252.76 57.7655 252.76C56.7087 252.76 55.7882 252.598 55.0041 252.274C54.2243 251.95 53.6149 251.471 53.176 250.836C52.7414 250.197 52.5134 249.406 52.4921 248.464H55.1703C55.2002 248.903 55.3259 249.27 55.5475 249.564C55.7733 249.854 56.0738 250.073 56.4488 250.222C56.828 250.367 57.2563 250.44 57.7336 250.44C58.2023 250.44 58.6093 250.371 58.9544 250.235C59.3039 250.099 59.5745 249.909 59.7662 249.666C59.958 249.423 60.0539 249.144 60.0539 248.829C60.0539 248.535 59.9665 248.288 59.7918 248.087C59.6213 247.887 59.3699 247.717 59.0375 247.576C58.7094 247.435 58.3067 247.308 57.8294 247.192L56.404 246.835C55.3003 246.566 54.4289 246.146 53.7897 245.575C53.1505 245.004 52.833 244.235 52.8372 243.268C52.833 242.475 53.0439 241.783 53.4701 241.19C53.9005 240.598 54.4907 240.136 55.2407 239.803C55.9907 239.471 56.8429 239.305 57.7975 239.305C58.7691 239.305 59.6171 239.471 60.3415 239.803C61.0702 240.136 61.637 240.598 62.0418 241.19C62.4466 241.783 62.6554 242.469 62.6682 243.249H60.0155ZM69.1322 252.766C68.1222 252.766 67.2529 252.562 66.5242 252.153C65.7998 251.739 65.2415 251.156 64.8495 250.401C64.4575 249.643 64.2614 248.746 64.2614 247.71C64.2614 246.7 64.4575 245.814 64.8495 245.051C65.2415 244.288 65.7934 243.694 66.505 243.268C67.2209 242.842 68.0604 242.629 69.0235 242.629C69.6712 242.629 70.2742 242.733 70.8325 242.942C71.395 243.146 71.885 243.455 72.3026 243.869C72.7245 244.282 73.0526 244.802 73.287 245.428C73.5214 246.05 73.6386 246.779 73.6386 247.614V248.362H65.3481V246.675H71.0753C71.0753 246.283 70.9901 245.935 70.8197 245.633C70.6492 245.33 70.4127 245.094 70.1101 244.923C69.8119 244.749 69.4646 244.661 69.0682 244.661C68.6549 244.661 68.2884 244.757 67.9688 244.949C67.6535 245.136 67.4063 245.39 67.2273 245.71C67.0484 246.025 66.9567 246.376 66.9525 246.764V248.369C66.9525 248.854 67.042 249.274 67.2209 249.628C67.4042 249.982 67.662 250.254 67.9944 250.446C68.3268 250.638 68.7209 250.734 69.1769 250.734C69.4795 250.734 69.7565 250.691 70.0079 250.606C70.2593 250.521 70.4745 250.393 70.6535 250.222C70.8325 250.052 70.9688 249.843 71.0626 249.596L73.581 249.762C73.4532 250.367 73.1911 250.896 72.7948 251.347C72.4028 251.795 71.8957 252.144 71.2735 252.396C70.6556 252.643 69.9418 252.766 69.1322 252.766ZM75.4155 252.575V242.756H78.0555V244.469H78.1577C78.3367 243.86 78.6371 243.4 79.059 243.089C79.4809 242.773 79.9667 242.616 80.5164 242.616C80.6528 242.616 80.7998 242.624 80.9575 242.641C81.1151 242.658 81.2536 242.682 81.3729 242.712V245.128C81.2451 245.089 81.0682 245.055 80.8424 245.026C80.6165 244.996 80.4099 244.981 80.2224 244.981C79.8218 244.981 79.4638 245.068 79.1485 245.243C78.8374 245.413 78.5903 245.652 78.407 245.959C78.228 246.266 78.1386 246.619 78.1386 247.02V252.575H75.4155ZM92.233 242.756L88.8005 252.575H85.7323L82.2998 242.756H85.1762L87.2153 249.781H87.3175L89.3502 242.756H92.233ZM93.6265 252.575V242.756H96.3495V252.575H93.6265ZM94.9944 241.491C94.5896 241.491 94.2423 241.357 93.9525 241.088C93.667 240.815 93.5242 240.489 93.5242 240.11C93.5242 239.735 93.667 239.413 93.9525 239.145C94.2423 238.872 94.5896 238.736 94.9944 238.736C95.3992 238.736 95.7444 238.872 96.0299 239.145C96.3197 239.413 96.4646 239.735 96.4646 240.11C96.4646 240.489 96.3197 240.815 96.0299 241.088C95.7444 241.357 95.3992 241.491 94.9944 241.491ZM102.967 252.766C101.961 252.766 101.096 252.553 100.372 252.127C99.6515 251.697 99.0975 251.1 98.7098 250.337C98.3262 249.575 98.1345 248.697 98.1345 247.704C98.1345 246.698 98.3284 245.816 98.7162 245.058C99.1082 244.295 99.6643 243.7 100.384 243.274C101.105 242.844 101.961 242.629 102.954 242.629C103.811 242.629 104.561 242.784 105.204 243.095C105.848 243.406 106.357 243.843 106.732 244.406C107.107 244.968 107.313 245.629 107.352 246.387H104.782C104.71 245.897 104.518 245.503 104.207 245.205C103.9 244.902 103.497 244.751 102.999 244.751C102.577 244.751 102.208 244.866 101.893 245.096C101.582 245.322 101.339 245.652 101.164 246.087C100.99 246.521 100.902 247.048 100.902 247.665C100.902 248.292 100.987 248.825 101.158 249.264C101.333 249.702 101.578 250.037 101.893 250.267C102.208 250.497 102.577 250.612 102.999 250.612C103.31 250.612 103.589 250.548 103.836 250.42C104.088 250.293 104.294 250.107 104.456 249.864C104.622 249.617 104.731 249.321 104.782 248.976H107.352C107.309 249.726 107.105 250.386 106.738 250.957C106.376 251.524 105.875 251.967 105.236 252.287C104.597 252.607 103.84 252.766 102.967 252.766ZM113.57 252.766C112.56 252.766 111.69 252.562 110.962 252.153C110.237 251.739 109.679 251.156 109.287 250.401C108.895 249.643 108.699 248.746 108.699 247.71C108.699 246.7 108.895 245.814 109.287 245.051C109.679 244.288 110.231 243.694 110.943 243.268C111.658 242.842 112.498 242.629 113.461 242.629C114.109 242.629 114.712 242.733 115.27 242.942C115.832 243.146 116.323 243.455 116.74 243.869C117.162 244.282 117.49 244.802 117.724 245.428C117.959 246.05 118.076 246.779 118.076 247.614V248.362H109.786V246.675H115.513C115.513 246.283 115.428 245.935 115.257 245.633C115.087 245.33 114.85 245.094 114.548 244.923C114.249 244.749 113.902 244.661 113.506 244.661C113.092 244.661 112.726 244.757 112.406 244.949C112.091 245.136 111.844 245.39 111.665 245.71C111.486 246.025 111.394 246.376 111.39 246.764V248.369C111.39 248.854 111.479 249.274 111.658 249.628C111.842 249.982 112.099 250.254 112.432 250.446C112.764 250.638 113.158 250.734 113.614 250.734C113.917 250.734 114.194 250.691 114.445 250.606C114.697 250.521 114.912 250.393 115.091 250.222C115.27 250.052 115.406 249.843 115.5 249.596L118.019 249.762C117.891 250.367 117.629 250.896 117.232 251.347C116.84 251.795 116.333 252.144 115.711 252.396C115.093 252.643 114.379 252.766 113.57 252.766ZM128.022 245.556L125.529 245.71C125.487 245.496 125.395 245.305 125.254 245.134C125.114 244.96 124.928 244.821 124.698 244.719C124.472 244.612 124.202 244.559 123.886 244.559C123.465 244.559 123.109 244.648 122.819 244.827C122.529 245.002 122.384 245.237 122.384 245.531C122.384 245.765 122.478 245.963 122.666 246.125C122.853 246.287 123.175 246.417 123.631 246.515L125.408 246.873C126.362 247.069 127.074 247.384 127.543 247.819C128.011 248.254 128.246 248.825 128.246 249.532C128.246 250.175 128.056 250.74 127.677 251.226C127.302 251.712 126.786 252.091 126.13 252.364C125.478 252.632 124.726 252.766 123.874 252.766C122.574 252.766 121.538 252.496 120.767 251.955C120 251.409 119.55 250.668 119.418 249.73L122.097 249.589C122.178 249.986 122.374 250.288 122.685 250.497C122.996 250.702 123.394 250.804 123.88 250.804C124.357 250.804 124.741 250.712 125.031 250.529C125.325 250.342 125.474 250.101 125.478 249.807C125.474 249.56 125.369 249.357 125.165 249.2C124.96 249.038 124.645 248.914 124.219 248.829L122.519 248.49C121.56 248.298 120.846 247.966 120.377 247.493C119.913 247.02 119.68 246.417 119.68 245.684C119.68 245.053 119.851 244.51 120.192 244.054C120.537 243.598 121.021 243.246 121.643 242.999C122.269 242.752 123.002 242.629 123.842 242.629C125.082 242.629 126.058 242.891 126.769 243.415C127.485 243.939 127.903 244.653 128.022 245.556Z" fill="black"/>
<path d="M158.293 227.293C157.902 227.683 157.902 228.317 158.293 228.707L164.657 235.071C165.047 235.462 165.681 235.462 166.071 235.071C166.462 234.681 166.462 234.047 166.071 233.657L160.414 228L166.071 222.343C166.462 221.953 166.462 221.319 166.071 220.929C165.681 220.538 165.047 220.538 164.657 220.929L158.293 227.293ZM235 227H159V229H235V227Z" fill="black"/>
</svg>
