<svg width="505" height="307" viewBox="0 0 505 307" fill="none" xmlns="http://www.w3.org/2000/svg">
<path d="M27 6.5V242.5" stroke="#DFDFDF"/>
<path d="M145 6.5V242.5" stroke="#DFDFDF"/>
<path d="M264 6.5V242.5" stroke="#DFDFDF"/>
<path d="M382 6.5V242.5" stroke="#DFDFDF"/>
<path d="M501 6.5V242.5" stroke="#DFDFDF"/>
<path d="M27.5 243H500.5" stroke="#DFDFDF"/>
<path d="M27.5 196H500.5" stroke="#DFDFDF"/>
<path d="M27.5 149H500.5" stroke="#DFDFDF"/>
<path d="M27.5 101H500.5" stroke="#DFDFDF"/>
<path d="M27.5 54H500.5" stroke="#DFDFDF"/>
<path d="M27.5 6H500.5" stroke="#DFDFDF"/>
<path d="M27.5 243H500.5" stroke="#DFDFDF"/>
<path d="M27 6.5V242.5" stroke="#DFDFDF"/>
<path d="M25.542 259.5H24.3701L26.9385 255.823L24.5312 252.327H25.7471L27.5781 255.071L29.3945 252.327H30.5518L28.1445 255.823L30.6689 259.5H29.4629L27.5293 256.551L25.542 259.5Z" fill="#A3A3A3"/>
<path d="M141.512 254.549V253.875C142.146 253.813 142.589 253.711 142.84 253.567C143.09 253.421 143.278 253.077 143.401 252.537H144.095V259.5H143.157V254.549H141.512ZM146.336 254.549V253.875C146.971 253.813 147.413 253.711 147.664 253.567C147.915 253.421 148.102 253.077 148.226 252.537H148.919V259.5H147.981V254.549H146.336Z" fill="#A3A3A3"/>
<path d="M259.391 254.549V253.875C260.025 253.813 260.468 253.711 260.719 253.567C260.969 253.421 261.157 253.077 261.28 252.537H261.974V259.5H261.036V254.549H259.391ZM264.312 259.5C264.345 258.898 264.469 258.374 264.684 257.928C264.902 257.482 265.325 257.076 265.953 256.712L266.891 256.17C267.311 255.926 267.605 255.717 267.774 255.545C268.041 255.275 268.175 254.965 268.175 254.617C268.175 254.21 268.053 253.888 267.809 253.65C267.564 253.41 267.239 253.289 266.832 253.289C266.23 253.289 265.813 253.517 265.582 253.973C265.458 254.217 265.39 254.555 265.377 254.988H264.483C264.493 254.38 264.605 253.883 264.82 253.499C265.201 252.822 265.873 252.483 266.837 252.483C267.638 252.483 268.222 252.7 268.59 253.133C268.961 253.566 269.146 254.048 269.146 254.578C269.146 255.138 268.95 255.617 268.556 256.014C268.328 256.245 267.919 256.525 267.33 256.854L266.661 257.225C266.342 257.4 266.091 257.568 265.909 257.728C265.584 258.011 265.379 258.325 265.294 258.67H269.112V259.5H264.312Z" fill="#A3A3A3"/>
<path d="M377.641 254.549V253.875C378.275 253.813 378.718 253.711 378.969 253.567C379.219 253.421 379.407 253.077 379.53 252.537H380.224V259.5H379.286V254.549H377.641ZM384.848 259.69C384.021 259.69 383.42 259.464 383.046 259.012C382.675 258.556 382.489 258.003 382.489 257.352H383.407C383.446 257.804 383.531 258.133 383.661 258.338C383.889 258.706 384.301 258.89 384.896 258.89C385.359 258.89 385.73 258.766 386.01 258.519C386.29 258.271 386.43 257.952 386.43 257.562C386.43 257.08 386.282 256.743 385.985 256.551C385.692 256.359 385.284 256.263 384.76 256.263C384.701 256.263 384.641 256.264 384.579 256.268C384.521 256.268 384.46 256.269 384.398 256.272V255.496C384.49 255.506 384.566 255.512 384.628 255.516C384.69 255.519 384.757 255.521 384.828 255.521C385.157 255.521 385.427 255.468 385.639 255.364C386.01 255.182 386.195 254.856 386.195 254.388C386.195 254.039 386.072 253.771 385.824 253.582C385.577 253.393 385.289 253.299 384.96 253.299C384.374 253.299 383.969 253.494 383.744 253.885C383.62 254.1 383.55 254.406 383.534 254.803H382.665C382.665 254.282 382.769 253.839 382.978 253.475C383.336 252.824 383.965 252.498 384.867 252.498C385.58 252.498 386.132 252.658 386.522 252.977C386.913 253.292 387.108 253.751 387.108 254.354C387.108 254.783 386.993 255.132 386.762 255.398C386.618 255.564 386.433 255.695 386.205 255.789C386.573 255.89 386.859 256.085 387.064 256.375C387.273 256.661 387.377 257.013 387.377 257.43C387.377 258.097 387.157 258.641 386.718 259.061C386.278 259.48 385.655 259.69 384.848 259.69Z" fill="#A3A3A3"/>
<path d="M490.695 254.549V253.875C491.33 253.813 491.773 253.711 492.023 253.567C492.274 253.421 492.461 253.077 492.585 252.537H493.278V259.5H492.341V254.549H490.695ZM498.61 257.024V253.855L496.369 257.024H498.61ZM498.625 259.5V257.791H495.559V256.932L498.762 252.488H499.504V257.024H500.534V257.791H499.504V259.5H498.625Z" fill="#A3A3A3"/>
<path d="M1.75781 240.549V239.875C2.39258 239.813 2.83529 239.711 3.08594 239.567C3.33659 239.421 3.52376 239.077 3.64746 238.537H4.34082V245.5H3.40332V240.549H1.75781ZM9.29199 238.479C10.0732 238.479 10.6169 238.682 10.9229 239.089C11.2321 239.493 11.3867 239.909 11.3867 240.339H10.5176C10.4655 240.062 10.3825 239.846 10.2686 239.689C10.057 239.396 9.73633 239.25 9.30664 239.25C8.8151 239.25 8.42448 239.478 8.13477 239.934C7.84505 240.386 7.68392 241.035 7.65137 241.882C7.85319 241.586 8.1071 241.364 8.41309 241.218C8.69303 241.088 9.00553 241.022 9.35059 241.022C9.93652 241.022 10.4476 241.21 10.8838 241.584C11.32 241.958 11.5381 242.517 11.5381 243.259C11.5381 243.894 11.3314 244.457 10.918 244.948C10.5046 245.437 9.91536 245.681 9.15039 245.681C8.49609 245.681 7.93132 245.433 7.45605 244.938C6.98079 244.44 6.74316 243.604 6.74316 242.429C6.74316 241.56 6.84896 240.822 7.06055 240.217C7.46745 239.058 8.21126 238.479 9.29199 238.479ZM9.22852 244.899C9.69076 244.899 10.0358 244.745 10.2637 244.436C10.4948 244.123 10.6104 243.755 10.6104 243.332C10.6104 242.974 10.5078 242.634 10.3027 242.312C10.0977 241.986 9.72493 241.823 9.18457 241.823C8.80697 241.823 8.47493 241.949 8.18848 242.199C7.90527 242.45 7.76367 242.827 7.76367 243.332C7.76367 243.775 7.89225 244.147 8.14941 244.45C8.40983 244.75 8.76953 244.899 9.22852 244.899ZM14.6387 238.508C15.5436 238.508 16.1979 238.881 16.6016 239.626C16.9141 240.202 17.0703 240.992 17.0703 241.994C17.0703 242.945 16.9287 243.731 16.6455 244.353C16.2354 245.244 15.5648 245.69 14.6338 245.69C13.7939 245.69 13.1689 245.326 12.7588 244.597C12.417 243.988 12.2461 243.171 12.2461 242.146C12.2461 241.351 12.3486 240.669 12.5537 240.1C12.9378 239.038 13.6328 238.508 14.6387 238.508ZM14.6289 244.89C15.0846 244.89 15.4476 244.688 15.7178 244.284C15.988 243.881 16.123 243.129 16.123 242.028C16.123 241.234 16.0254 240.581 15.8301 240.07C15.6348 239.556 15.2555 239.299 14.6924 239.299C14.1748 239.299 13.7956 239.543 13.5547 240.031C13.3171 240.516 13.1982 241.232 13.1982 242.18C13.1982 242.893 13.2747 243.465 13.4277 243.898C13.6621 244.559 14.0625 244.89 14.6289 244.89Z" fill="#A3A3A3"/>
<path d="M1.75781 193.549V192.875C2.39258 192.813 2.83529 192.711 3.08594 192.567C3.33659 192.421 3.52376 192.077 3.64746 191.537H4.34082V198.5H3.40332V193.549H1.75781ZM11.5967 191.625V192.392C11.3721 192.61 11.0726 192.989 10.6982 193.529C10.3271 194.07 9.99837 194.652 9.71191 195.277C9.42871 195.886 9.21387 196.441 9.06738 196.942C8.97298 197.265 8.85091 197.784 8.70117 198.5H7.72949C7.95085 197.165 8.43913 195.837 9.19434 194.516C9.6403 193.741 10.109 193.072 10.6006 192.509H6.7334V191.625H11.5967ZM14.6387 191.508C15.5436 191.508 16.1979 191.881 16.6016 192.626C16.9141 193.202 17.0703 193.992 17.0703 194.994C17.0703 195.945 16.9287 196.731 16.6455 197.353C16.2354 198.244 15.5648 198.69 14.6338 198.69C13.7939 198.69 13.1689 198.326 12.7588 197.597C12.417 196.988 12.2461 196.171 12.2461 195.146C12.2461 194.351 12.3486 193.669 12.5537 193.1C12.9378 192.038 13.6328 191.508 14.6387 191.508ZM14.6289 197.89C15.0846 197.89 15.4476 197.688 15.7178 197.284C15.988 196.881 16.123 196.129 16.123 195.028C16.123 194.234 16.0254 193.581 15.8301 193.07C15.6348 192.556 15.2555 192.299 14.6924 192.299C14.1748 192.299 13.7956 192.543 13.5547 193.031C13.3171 193.516 13.1982 194.232 13.1982 195.18C13.1982 195.893 13.2747 196.465 13.4277 196.898C13.6621 197.559 14.0625 197.89 14.6289 197.89Z" fill="#A3A3A3"/>
<path d="M1.75781 146.549V145.875C2.39258 145.813 2.83529 145.711 3.08594 145.567C3.33659 145.421 3.52376 145.077 3.64746 144.537H4.34082V151.5H3.40332V146.549H1.75781ZM9.08691 147.438C9.47428 147.438 9.77702 147.33 9.99512 147.115C10.2132 146.897 10.3223 146.638 10.3223 146.339C10.3223 146.078 10.2181 145.839 10.0098 145.621C9.80143 145.403 9.48405 145.294 9.05762 145.294C8.63444 145.294 8.32845 145.403 8.13965 145.621C7.95085 145.839 7.85645 146.095 7.85645 146.388C7.85645 146.716 7.97852 146.974 8.22266 147.159C8.4668 147.345 8.75488 147.438 9.08691 147.438ZM9.14062 150.899C9.54753 150.899 9.88444 150.79 10.1514 150.572C10.4215 150.351 10.5566 150.022 10.5566 149.586C10.5566 149.133 10.4183 148.79 10.1416 148.556C9.86491 148.321 9.51009 148.204 9.07715 148.204C8.65723 148.204 8.3138 148.325 8.04688 148.565C7.7832 148.803 7.65137 149.133 7.65137 149.557C7.65137 149.921 7.77181 150.237 8.0127 150.504C8.25684 150.768 8.63281 150.899 9.14062 150.899ZM7.89062 147.774C7.64648 147.67 7.45605 147.548 7.31934 147.408C7.06217 147.148 6.93359 146.809 6.93359 146.393C6.93359 145.872 7.1224 145.424 7.5 145.05C7.8776 144.675 8.41309 144.488 9.10645 144.488C9.77702 144.488 10.3027 144.666 10.6836 145.021C11.0645 145.372 11.2549 145.784 11.2549 146.256C11.2549 146.692 11.1442 147.045 10.9229 147.315C10.7992 147.468 10.6071 147.618 10.3467 147.765C10.6364 147.898 10.8643 148.051 11.0303 148.224C11.3395 148.549 11.4941 148.972 11.4941 149.493C11.4941 150.108 11.2874 150.631 10.874 151.061C10.4606 151.487 9.8763 151.7 9.12109 151.7C8.44076 151.7 7.86458 151.516 7.39258 151.148C6.92383 150.777 6.68945 150.24 6.68945 149.537C6.68945 149.124 6.79036 148.767 6.99219 148.468C7.19401 148.165 7.49349 147.934 7.89062 147.774ZM14.6387 144.508C15.5436 144.508 16.1979 144.881 16.6016 145.626C16.9141 146.202 17.0703 146.992 17.0703 147.994C17.0703 148.945 16.9287 149.731 16.6455 150.353C16.2354 151.244 15.5648 151.69 14.6338 151.69C13.7939 151.69 13.1689 151.326 12.7588 150.597C12.417 149.988 12.2461 149.171 12.2461 148.146C12.2461 147.351 12.3486 146.669 12.5537 146.1C12.9378 145.038 13.6328 144.508 14.6387 144.508ZM14.6289 150.89C15.0846 150.89 15.4476 150.688 15.7178 150.284C15.988 149.881 16.123 149.129 16.123 148.028C16.123 147.234 16.0254 146.581 15.8301 146.07C15.6348 145.556 15.2555 145.299 14.6924 145.299C14.1748 145.299 13.7956 145.543 13.5547 146.031C13.3171 146.516 13.1982 147.232 13.1982 148.18C13.1982 148.893 13.2747 149.465 13.4277 149.898C13.6621 150.559 14.0625 150.89 14.6289 150.89Z" fill="#A3A3A3"/>
<path d="M1.75781 98.5488V97.875C2.39258 97.8132 2.83529 97.7106 3.08594 97.5674C3.33659 97.4209 3.52376 97.0775 3.64746 96.5371H4.34082V103.5H3.40332V98.5488H1.75781ZM7.69531 101.811C7.72135 102.296 7.90853 102.631 8.25684 102.816C8.43587 102.914 8.6377 102.963 8.8623 102.963C9.28223 102.963 9.6403 102.789 9.93652 102.44C10.2327 102.089 10.4427 101.378 10.5664 100.307C10.3711 100.616 10.1286 100.834 9.83887 100.961C9.55241 101.085 9.24316 101.146 8.91113 101.146C8.2373 101.146 7.70345 100.937 7.30957 100.517C6.91895 100.097 6.72363 99.5563 6.72363 98.8955C6.72363 98.2607 6.91732 97.7025 7.30469 97.2207C7.69206 96.7389 8.26335 96.498 9.01855 96.498C10.0374 96.498 10.7406 96.957 11.1279 97.875C11.3428 98.3796 11.4502 99.0111 11.4502 99.7695C11.4502 100.626 11.3216 101.384 11.0645 102.045C10.638 103.145 9.91536 103.695 8.89648 103.695C8.21289 103.695 7.69368 103.516 7.33887 103.158C6.98405 102.8 6.80664 102.351 6.80664 101.811H7.69531ZM9.02832 100.375C9.37663 100.375 9.69401 100.261 9.98047 100.033C10.2702 99.8021 10.415 99.4001 10.415 98.8271C10.415 98.3128 10.2848 97.9303 10.0244 97.6797C9.76725 97.4258 9.43848 97.2988 9.03809 97.2988C8.6084 97.2988 8.2666 97.4437 8.0127 97.7334C7.76204 98.0199 7.63672 98.404 7.63672 98.8857C7.63672 99.3415 7.7474 99.7044 7.96875 99.9746C8.1901 100.242 8.54329 100.375 9.02832 100.375ZM14.6387 96.5078C15.5436 96.5078 16.1979 96.8805 16.6016 97.626C16.9141 98.2021 17.0703 98.9915 17.0703 99.9941C17.0703 100.945 16.9287 101.731 16.6455 102.353C16.2354 103.244 15.5648 103.69 14.6338 103.69C13.7939 103.69 13.1689 103.326 12.7588 102.597C12.417 101.988 12.2461 101.171 12.2461 100.146C12.2461 99.3512 12.3486 98.6693 12.5537 98.0996C12.9378 97.0384 13.6328 96.5078 14.6387 96.5078ZM14.6289 102.89C15.0846 102.89 15.4476 102.688 15.7178 102.284C15.988 101.881 16.123 101.129 16.123 100.028C16.123 99.234 16.0254 98.5814 15.8301 98.0703C15.6348 97.556 15.2555 97.2988 14.6924 97.2988C14.1748 97.2988 13.7956 97.543 13.5547 98.0312C13.3171 98.5163 13.1982 99.2324 13.1982 100.18C13.1982 100.893 13.2747 101.465 13.4277 101.898C13.6621 102.559 14.0625 102.89 14.6289 102.89Z" fill="#A3A3A3"/>
<path d="M1.11328 56.5C1.14583 55.8978 1.26953 55.3737 1.48438 54.9277C1.70247 54.4818 2.12565 54.0765 2.75391 53.7119L3.69141 53.1699C4.11133 52.9258 4.40592 52.7174 4.5752 52.5449C4.84212 52.2747 4.97559 51.9655 4.97559 51.6172C4.97559 51.2103 4.85352 50.888 4.60938 50.6504C4.36523 50.4095 4.03971 50.2891 3.63281 50.2891C3.0306 50.2891 2.61393 50.5169 2.38281 50.9727C2.25911 51.2168 2.19076 51.5553 2.17773 51.9883H1.28418C1.29395 51.3796 1.40625 50.8831 1.62109 50.499C2.00195 49.8219 2.67415 49.4834 3.6377 49.4834C4.43848 49.4834 5.02279 49.6999 5.39062 50.1328C5.76172 50.5658 5.94727 51.0475 5.94727 51.5781C5.94727 52.138 5.75033 52.6165 5.35645 53.0137C5.12858 53.2448 4.72005 53.5247 4.13086 53.8535L3.46191 54.2246C3.1429 54.4004 2.89225 54.568 2.70996 54.7275C2.38444 55.0107 2.17936 55.3249 2.09473 55.6699H5.91309V56.5H1.11328ZM9.07227 49.5078C9.97721 49.5078 10.6315 49.8805 11.0352 50.626C11.3477 51.2021 11.5039 51.9915 11.5039 52.9941C11.5039 53.9447 11.3623 54.7308 11.0791 55.3525C10.6689 56.2445 9.99837 56.6904 9.06738 56.6904C8.22754 56.6904 7.60254 56.3258 7.19238 55.5967C6.85059 54.988 6.67969 54.1709 6.67969 53.1455C6.67969 52.3512 6.78223 51.6693 6.9873 51.0996C7.37142 50.0384 8.06641 49.5078 9.07227 49.5078ZM9.0625 55.8896C9.51823 55.8896 9.88118 55.6878 10.1514 55.2842C10.4215 54.8805 10.5566 54.1286 10.5566 53.0283C10.5566 52.234 10.459 51.5814 10.2637 51.0703C10.0684 50.556 9.68913 50.2988 9.12598 50.2988C8.6084 50.2988 8.22917 50.543 7.98828 51.0312C7.75065 51.5163 7.63184 52.2324 7.63184 53.1797C7.63184 53.8926 7.70833 54.4655 7.86133 54.8984C8.0957 55.5592 8.49609 55.8896 9.0625 55.8896ZM14.6387 49.5078C15.5436 49.5078 16.1979 49.8805 16.6016 50.626C16.9141 51.2021 17.0703 51.9915 17.0703 52.9941C17.0703 53.9447 16.9287 54.7308 16.6455 55.3525C16.2354 56.2445 15.5648 56.6904 14.6338 56.6904C13.7939 56.6904 13.1689 56.3258 12.7588 55.5967C12.417 54.988 12.2461 54.1709 12.2461 53.1455C12.2461 52.3512 12.3486 51.6693 12.5537 51.0996C12.9378 50.0384 13.6328 49.5078 14.6387 49.5078ZM14.6289 55.8896C15.0846 55.8896 15.4476 55.6878 15.7178 55.2842C15.988 54.8805 16.123 54.1286 16.123 53.0283C16.123 52.234 16.0254 51.5814 15.8301 51.0703C15.6348 50.556 15.2555 50.2988 14.6924 50.2988C14.1748 50.2988 13.7956 50.543 13.5547 51.0312C13.3171 51.5163 13.1982 52.2324 13.1982 53.1797C13.1982 53.8926 13.2747 54.4655 13.4277 54.8984C13.6621 55.5592 14.0625 55.8896 14.6289 55.8896Z" fill="#A3A3A3"/>
<path d="M1.11328 9.5C1.14583 8.89779 1.26953 8.3737 1.48438 7.92773C1.70247 7.48177 2.12565 7.0765 2.75391 6.71191L3.69141 6.16992C4.11133 5.92578 4.40592 5.71745 4.5752 5.54492C4.84212 5.27474 4.97559 4.96549 4.97559 4.61719C4.97559 4.21029 4.85352 3.88802 4.60938 3.65039C4.36523 3.40951 4.03971 3.28906 3.63281 3.28906C3.0306 3.28906 2.61393 3.51693 2.38281 3.97266C2.25911 4.2168 2.19076 4.55534 2.17773 4.98828H1.28418C1.29395 4.37956 1.40625 3.88314 1.62109 3.49902C2.00195 2.82194 2.67415 2.4834 3.6377 2.4834C4.43848 2.4834 5.02279 2.69987 5.39062 3.13281C5.76172 3.56576 5.94727 4.04753 5.94727 4.57812C5.94727 5.13802 5.75033 5.61654 5.35645 6.01367C5.12858 6.24479 4.72005 6.52474 4.13086 6.85352L3.46191 7.22461C3.1429 7.40039 2.89225 7.56803 2.70996 7.72754C2.38444 8.01074 2.17936 8.32487 2.09473 8.66992H5.91309V9.5H1.11328ZM7.32422 4.54883V3.875C7.95898 3.81315 8.40169 3.71061 8.65234 3.56738C8.90299 3.4209 9.09017 3.07747 9.21387 2.53711H9.90723V9.5H8.96973V4.54883H7.32422ZM14.6387 2.50781C15.5436 2.50781 16.1979 2.88053 16.6016 3.62598C16.9141 4.20215 17.0703 4.99154 17.0703 5.99414C17.0703 6.94466 16.9287 7.73079 16.6455 8.35254C16.2354 9.24447 15.5648 9.69043 14.6338 9.69043C13.7939 9.69043 13.1689 9.32585 12.7588 8.59668C12.417 7.98796 12.2461 7.1709 12.2461 6.14551C12.2461 5.35124 12.3486 4.66927 12.5537 4.09961C12.9378 3.03841 13.6328 2.50781 14.6387 2.50781ZM14.6289 8.88965C15.0846 8.88965 15.4476 8.68783 15.7178 8.28418C15.988 7.88053 16.123 7.12858 16.123 6.02832C16.123 5.23405 16.0254 4.58138 15.8301 4.07031C15.6348 3.55599 15.2555 3.29883 14.6924 3.29883C14.1748 3.29883 13.7956 3.54297 13.5547 4.03125C13.3171 4.51628 13.1982 5.23242 13.1982 6.17969C13.1982 6.89258 13.2747 7.46549 13.4277 7.89844C13.6621 8.55924 14.0625 8.88965 14.6289 8.88965Z" fill="#A3A3A3"/>
<path d="M171.5 292.5H187.5" stroke="#E31A1C" stroke-width="2"/>
<path d="M271.875 292.5H287.875" stroke="#1F78B4" stroke-width="2"/>
<path d="M193.273 291.254H194.346V297.5H193.273V291.254ZM193.273 288.893H194.346V290.088H193.273V288.893ZM196.197 288.893H200.07C200.836 288.893 201.453 289.109 201.922 289.543C202.391 289.973 202.625 290.578 202.625 291.359C202.625 292.031 202.416 292.617 201.998 293.117C201.58 293.613 200.938 293.861 200.07 293.861H197.363V297.5H196.197V288.893ZM201.447 291.365C201.447 290.732 201.213 290.303 200.744 290.076C200.486 289.955 200.133 289.895 199.684 289.895H197.363V292.877H199.684C200.207 292.877 200.631 292.766 200.955 292.543C201.283 292.32 201.447 291.928 201.447 291.365ZM203.949 288.863H205.004V292.074C205.254 291.758 205.479 291.535 205.678 291.406C206.018 291.184 206.441 291.072 206.949 291.072C207.859 291.072 208.477 291.391 208.801 292.027C208.977 292.375 209.064 292.857 209.064 293.475V297.5H207.98V293.545C207.98 293.084 207.922 292.746 207.805 292.531C207.613 292.188 207.254 292.016 206.727 292.016C206.289 292.016 205.893 292.166 205.537 292.467C205.182 292.768 205.004 293.336 205.004 294.172V297.5H203.949V288.863ZM213.119 296.82C213.818 296.82 214.297 296.557 214.555 296.029C214.816 295.498 214.947 294.908 214.947 294.26C214.947 293.674 214.854 293.197 214.666 292.83C214.369 292.252 213.857 291.963 213.131 291.963C212.486 291.963 212.018 292.209 211.725 292.701C211.432 293.193 211.285 293.787 211.285 294.482C211.285 295.15 211.432 295.707 211.725 296.152C212.018 296.598 212.482 296.82 213.119 296.82ZM213.16 291.043C213.969 291.043 214.652 291.312 215.211 291.852C215.77 292.391 216.049 293.184 216.049 294.23C216.049 295.242 215.803 296.078 215.311 296.738C214.818 297.398 214.055 297.729 213.02 297.729C212.156 297.729 211.471 297.438 210.963 296.855C210.455 296.27 210.201 295.484 210.201 294.5C210.201 293.445 210.469 292.605 211.004 291.98C211.539 291.355 212.258 291.043 213.16 291.043ZM217.309 291.225H218.311V292.115C218.607 291.748 218.922 291.484 219.254 291.324C219.586 291.164 219.955 291.084 220.361 291.084C221.252 291.084 221.854 291.395 222.166 292.016C222.338 292.355 222.424 292.842 222.424 293.475V297.5H221.352V293.545C221.352 293.162 221.295 292.854 221.182 292.619C220.994 292.229 220.654 292.033 220.162 292.033C219.912 292.033 219.707 292.059 219.547 292.109C219.258 292.195 219.004 292.367 218.785 292.625C218.609 292.832 218.494 293.047 218.439 293.27C218.389 293.488 218.363 293.803 218.363 294.213V297.5H217.309V291.225ZM226.602 291.084C227.047 291.084 227.479 291.189 227.896 291.4C228.314 291.607 228.633 291.877 228.852 292.209C229.062 292.525 229.203 292.895 229.273 293.316C229.336 293.605 229.367 294.066 229.367 294.699H224.768C224.787 295.336 224.938 295.848 225.219 296.234C225.5 296.617 225.936 296.809 226.525 296.809C227.076 296.809 227.516 296.627 227.844 296.264C228.031 296.053 228.164 295.809 228.242 295.531H229.279C229.252 295.762 229.16 296.02 229.004 296.305C228.852 296.586 228.68 296.816 228.488 296.996C228.168 297.309 227.771 297.52 227.299 297.629C227.045 297.691 226.758 297.723 226.438 297.723C225.656 297.723 224.994 297.439 224.451 296.873C223.908 296.303 223.637 295.506 223.637 294.482C223.637 293.475 223.91 292.656 224.457 292.027C225.004 291.398 225.719 291.084 226.602 291.084ZM228.283 293.861C228.24 293.404 228.141 293.039 227.984 292.766C227.695 292.258 227.213 292.004 226.537 292.004C226.053 292.004 225.646 292.18 225.318 292.531C224.99 292.879 224.816 293.322 224.797 293.861H228.283ZM234.26 288.893H238.133C238.898 288.893 239.516 289.109 239.984 289.543C240.453 289.973 240.688 290.578 240.688 291.359C240.688 292.031 240.479 292.617 240.061 293.117C239.643 293.613 239 293.861 238.133 293.861H235.426V297.5H234.26V288.893ZM239.51 291.365C239.51 290.732 239.275 290.303 238.807 290.076C238.549 289.955 238.195 289.895 237.746 289.895H235.426V292.877H237.746C238.27 292.877 238.693 292.766 239.018 292.543C239.346 292.32 239.51 291.928 239.51 291.365ZM242.041 291.225H243.043V292.309C243.125 292.098 243.326 291.842 243.646 291.541C243.967 291.236 244.336 291.084 244.754 291.084C244.773 291.084 244.807 291.086 244.854 291.09C244.9 291.094 244.98 291.102 245.094 291.113V292.227C245.031 292.215 244.973 292.207 244.918 292.203C244.867 292.199 244.811 292.197 244.748 292.197C244.217 292.197 243.809 292.369 243.523 292.713C243.238 293.053 243.096 293.445 243.096 293.891V297.5H242.041V291.225ZM248.498 296.82C249.197 296.82 249.676 296.557 249.934 296.029C250.195 295.498 250.326 294.908 250.326 294.26C250.326 293.674 250.232 293.197 250.045 292.83C249.748 292.252 249.236 291.963 248.51 291.963C247.865 291.963 247.396 292.209 247.104 292.701C246.811 293.193 246.664 293.787 246.664 294.482C246.664 295.15 246.811 295.707 247.104 296.152C247.396 296.598 247.861 296.82 248.498 296.82ZM248.539 291.043C249.348 291.043 250.031 291.312 250.59 291.852C251.148 292.391 251.428 293.184 251.428 294.23C251.428 295.242 251.182 296.078 250.689 296.738C250.197 297.398 249.434 297.729 248.398 297.729C247.535 297.729 246.85 297.438 246.342 296.855C245.834 296.27 245.58 295.484 245.58 294.5C245.58 293.445 245.848 292.605 246.383 291.98C246.918 291.355 247.637 291.043 248.539 291.043Z" fill="#343434"/>
<path d="M293.648 291.254H294.721V297.5H293.648V291.254ZM293.648 288.893H294.721V290.088H293.648V288.893ZM296.572 288.893H300.445C301.211 288.893 301.828 289.109 302.297 289.543C302.766 289.973 303 290.578 303 291.359C303 292.031 302.791 292.617 302.373 293.117C301.955 293.613 301.312 293.861 300.445 293.861H297.738V297.5H296.572V288.893ZM301.822 291.365C301.822 290.732 301.588 290.303 301.119 290.076C300.861 289.955 300.508 289.895 300.059 289.895H297.738V292.877H300.059C300.582 292.877 301.006 292.766 301.33 292.543C301.658 292.32 301.822 291.928 301.822 291.365ZM304.324 288.863H305.379V292.074C305.629 291.758 305.854 291.535 306.053 291.406C306.393 291.184 306.816 291.072 307.324 291.072C308.234 291.072 308.852 291.391 309.176 292.027C309.352 292.375 309.439 292.857 309.439 293.475V297.5H308.355V293.545C308.355 293.084 308.297 292.746 308.18 292.531C307.988 292.188 307.629 292.016 307.102 292.016C306.664 292.016 306.268 292.166 305.912 292.467C305.557 292.768 305.379 293.336 305.379 294.172V297.5H304.324V288.863ZM313.494 296.82C314.193 296.82 314.672 296.557 314.93 296.029C315.191 295.498 315.322 294.908 315.322 294.26C315.322 293.674 315.229 293.197 315.041 292.83C314.744 292.252 314.232 291.963 313.506 291.963C312.861 291.963 312.393 292.209 312.1 292.701C311.807 293.193 311.66 293.787 311.66 294.482C311.66 295.15 311.807 295.707 312.1 296.152C312.393 296.598 312.857 296.82 313.494 296.82ZM313.535 291.043C314.344 291.043 315.027 291.312 315.586 291.852C316.145 292.391 316.424 293.184 316.424 294.23C316.424 295.242 316.178 296.078 315.686 296.738C315.193 297.398 314.43 297.729 313.395 297.729C312.531 297.729 311.846 297.438 311.338 296.855C310.83 296.27 310.576 295.484 310.576 294.5C310.576 293.445 310.844 292.605 311.379 291.98C311.914 291.355 312.633 291.043 313.535 291.043ZM317.684 291.225H318.686V292.115C318.982 291.748 319.297 291.484 319.629 291.324C319.961 291.164 320.33 291.084 320.736 291.084C321.627 291.084 322.229 291.395 322.541 292.016C322.713 292.355 322.799 292.842 322.799 293.475V297.5H321.727V293.545C321.727 293.162 321.67 292.854 321.557 292.619C321.369 292.229 321.029 292.033 320.537 292.033C320.287 292.033 320.082 292.059 319.922 292.109C319.633 292.195 319.379 292.367 319.16 292.625C318.984 292.832 318.869 293.047 318.814 293.27C318.764 293.488 318.738 293.803 318.738 294.213V297.5H317.684V291.225ZM326.977 291.084C327.422 291.084 327.854 291.189 328.271 291.4C328.689 291.607 329.008 291.877 329.227 292.209C329.438 292.525 329.578 292.895 329.648 293.316C329.711 293.605 329.742 294.066 329.742 294.699H325.143C325.162 295.336 325.312 295.848 325.594 296.234C325.875 296.617 326.311 296.809 326.9 296.809C327.451 296.809 327.891 296.627 328.219 296.264C328.406 296.053 328.539 295.809 328.617 295.531H329.654C329.627 295.762 329.535 296.02 329.379 296.305C329.227 296.586 329.055 296.816 328.863 296.996C328.543 297.309 328.146 297.52 327.674 297.629C327.42 297.691 327.133 297.723 326.812 297.723C326.031 297.723 325.369 297.439 324.826 296.873C324.283 296.303 324.012 295.506 324.012 294.482C324.012 293.475 324.285 292.656 324.832 292.027C325.379 291.398 326.094 291.084 326.977 291.084ZM328.658 293.861C328.615 293.404 328.516 293.039 328.359 292.766C328.07 292.258 327.588 292.004 326.912 292.004C326.428 292.004 326.021 292.18 325.693 292.531C325.365 292.879 325.191 293.322 325.172 293.861H328.658Z" fill="#343434"/>
<path d="M27.5 176.42C27.5 176.42 98.45 115.06 145.75 110.34C193.05 105.62 216.7 110.34 264 105.62C311.3 100.9 334.95 44.26 382.25 34.82C429.55 25.38 500.5 25.38 500.5 25.38" stroke="#E31A1C" stroke-width="2"/>
<path d="M145.75 82.02C145.75 82.02 216.7 223.62 264 223.62C311.3 223.62 334.95 176.42 382.25 176.42C429.55 176.42 500.5 185.86 500.5 185.86" stroke="#1F78B4" stroke-width="2"/>
<path d="M27.5 180.5C26.4393 180.5 25.422 180.079 24.6719 179.329C23.9218 178.579 23.5003 177.562 23.5 176.501C23.4997 175.44 23.9208 174.423 24.6705 173.673C25.4203 172.922 26.4373 172.501 27.498 172.5C28.5587 172.499 29.5762 172.92 30.3267 173.67C31.0772 174.419 31.4992 175.436 31.5 176.497C31.5008 177.558 31.0803 178.575 30.3309 179.326C29.5815 180.077 28.5647 180.499 27.504 180.5H27.5Z" fill="#E31A1C"/>
<path d="M145.5 114.5C144.439 114.5 143.422 114.079 142.672 113.329C141.922 112.579 141.5 111.562 141.5 110.501C141.5 109.44 141.921 108.423 142.671 107.673C143.42 106.922 144.437 106.501 145.498 106.5C146.559 106.499 147.576 106.92 148.327 107.67C149.077 108.419 149.499 109.436 149.5 110.497C149.501 111.558 149.08 112.575 148.331 113.326C147.582 114.077 146.565 114.499 145.504 114.5H145.5Z" fill="#E31A1C"/>
<path d="M263.5 109.5C262.439 109.5 261.422 109.079 260.672 108.329C259.922 107.579 259.5 106.562 259.5 105.501C259.5 104.44 259.921 103.423 260.671 102.673C261.42 101.922 262.437 101.501 263.498 101.5C264.559 101.499 265.576 101.92 266.327 102.67C267.077 103.419 267.499 104.436 267.5 105.497C267.501 106.558 267.08 107.575 266.331 108.326C265.582 109.077 264.565 109.499 263.504 109.5H263.5Z" fill="#E31A1C"/>
<path d="M381.5 38.5C380.439 38.5 379.422 38.0787 378.672 37.3288C377.922 36.5789 377.5 35.5617 377.5 34.501C377.5 33.4403 377.921 32.4229 378.671 31.6726C379.42 30.9223 380.437 30.5005 381.498 30.5C382.559 30.4995 383.576 30.9203 384.327 31.6698C385.077 32.4194 385.499 33.4363 385.5 34.497C385.501 35.5577 385.08 36.5753 384.331 37.326C383.582 38.0766 382.565 38.4989 381.504 38.5L381.5 38.5Z" fill="#E31A1C"/>
<path d="M500.5 29.5C499.439 29.5 498.422 29.0787 497.672 28.3288C496.922 27.5789 496.5 26.5617 496.5 25.501C496.5 24.4403 496.921 23.4229 497.671 22.6726C498.42 21.9223 499.437 21.5005 500.498 21.5C501.559 21.4995 502.576 21.9203 503.327 22.6698C504.077 23.4194 504.499 24.4363 504.5 25.497C504.501 26.5577 504.08 27.5753 503.331 28.326C502.582 29.0766 501.565 29.4989 500.504 29.5L500.5 29.5Z" fill="#E31A1C"/>
<path d="M145.5 86.5C144.439 86.5 143.422 86.0787 142.672 85.3288C141.922 84.5789 141.5 83.5617 141.5 82.501C141.5 81.4403 141.921 80.4229 142.671 79.6726C143.42 78.9223 144.437 78.5005 145.498 78.5C146.559 78.4995 147.576 78.9203 148.327 79.6698C149.077 80.4194 149.499 81.4363 149.5 82.497C149.501 83.5577 149.08 84.5753 148.331 85.326C147.582 86.0766 146.565 86.4989 145.504 86.5H145.5Z" fill="#1F78B4"/>
<path d="M263.5 227.5C262.439 227.5 261.422 227.079 260.672 226.329C259.922 225.579 259.5 224.562 259.5 223.501C259.5 222.44 259.921 221.423 260.671 220.673C261.42 219.922 262.437 219.501 263.498 219.5C264.559 219.499 265.576 219.92 266.327 220.67C267.077 221.419 267.499 222.436 267.5 223.497C267.501 224.558 267.08 225.575 266.331 226.326C265.582 227.077 264.565 227.499 263.504 227.5H263.5Z" fill="#1F78B4"/>
<path d="M381.5 180.5C380.439 180.5 379.422 180.079 378.672 179.329C377.922 178.579 377.5 177.562 377.5 176.501C377.5 175.44 377.921 174.423 378.671 173.673C379.42 172.922 380.437 172.501 381.498 172.5C382.559 172.499 383.576 172.92 384.327 173.67C385.077 174.419 385.499 175.436 385.5 176.497C385.501 177.558 385.08 178.575 384.331 179.326C383.582 180.077 382.565 180.499 381.504 180.5H381.5Z" fill="#1F78B4"/>
<path d="M500.5 189.5C499.439 189.5 498.422 189.079 497.672 188.329C496.922 187.579 496.5 186.562 496.5 185.501C496.5 184.44 496.921 183.423 497.671 182.673C498.42 181.922 499.437 181.501 500.498 181.5C501.559 181.499 502.576 181.92 503.327 182.67C504.077 183.419 504.499 184.436 504.5 185.497C504.501 186.558 504.08 187.575 503.331 188.326C502.582 189.077 501.565 189.499 500.504 189.5H500.5Z" fill="#1F78B4"/>
</svg>
